<svg xmlns="http://www.w3.org/2000/svg" viewBox="0 0 300 300"><g stroke-width="2" fill="none"><path stroke="#604da3" vector-effect="non-scaling-stroke" d="M65.58 108.07q-.2 4.49.37 8.86.7 5.24.66 8.2-.19 15.88.04 31.76c.02 1.33.56 2.08 1.32 3.07M94.69 162.95q.03.3-.22.52-.18.16-.43.16-12.52-.09-24.81.31-.46.02-.86-.19-.65-.34-1.16.19-.49.49-.4 1.2c.4 3.03.06 5.8.09 8.8q.14 12.48.14 24.94 0 3.01.45 5.69.49 2.92 1.78 5.64 1.47 3.09 3.4 6.12 2.47 3.88 8.05 7.94 1.91 1.39 5.1 2.21c1.66.42 3 1.48 4.65 2.04q10.44 3.55 19.92 7.38 1.55.62 3.32 1.16 2.32.7 4.9 2.03 2.98 1.53 6.2 2.27 2.39.54 5.17 1.7c5.07 2.12 10.36 3.64 15.59 5.55q4.29 1.57 9.16.13 8.26-2.45 16.2-5.66 8.21-3.31 15.97-6.19 10.44-3.87 20.85-7.81 1.69-.64 3.63-1.01 1.86-.36 3.42-1.51 2.37-1.74 4.92-2.82 2.12-.89 4.12-2.92 3.04-3.07 4.71-5.75 1.15-1.83 2.31-4.2 1.52-3.09 1.97-5.9.37-2.31.72-4.82.33-2.39.36-4.84.17-18.85-.05-29.06-.03-1.15-.86-3.47M233.76 160.19q.25-3.61.27-10.19.05-25.56-.1-37.75-.01-1.18-.66-1.46M203.2 98.68q.94 3.75.51 7.41a1.29 1.29 0 001.36 1.44q14.31-.8 28-.18a.87.86-89.1 00.9-.88c-.11-5.97-.33-14.11 2.82-19.09 1.14-1.8 2.04-3.87 3.55-5.37q7.04-7 17.42-6.77.58.01.77-.54.41-1.2.21-2.59-.09-.61-.63-.92-5.91-3.38-11.69-6.99-1.59-.99-3.67-1.96-2-.93-3.64-1.92-1.31-.78-4.87-2.02-2.65-.93-4.76-2.87-.38-.36-.89-.47-1.18-.25-2.25-.8-1.47-.75-2.96-1.19-4.32-1.26-8.76-2.85-22.52-8.07-47.09-10.07-1.74-.14-3.54-.43-1.61-.26-3.28-.48c-5.33-.71-11.01-.17-16.35-.47-1.87-.11-3.55.63-5.38-.18q-.52-.23-1.07-.06-1.75.55-3.62 1.09-1.83.53-3.64.77-13.69 1.8-27.19 4.86-5.18 1.17-10.57 3.09c-7.24 2.56-15.09 4.62-21.87 8.29-3.46 1.88-7.21 3.05-10.42 5.32q-.39.28-.85.13-.3-.11-.58.07-4.3 2.8-9.6 5.09a1.4 1.38 3.3 00-.65.57q-.36.59-.95.62-.43.03-.84.22-3.33 1.54-4.9 3.29-3.17 3.52 1.57 3.56 3.79.04 8.05 1.26 5.02 1.44 8.66 5.93 5.04 6.22 5.35 14.17c.08 2.13-.11 4.19.23 6.34q.23 1.46-.21 2.78-.14.44.27.65 1.62.82 3.45.74 13.92-.54 26.78.07.33.02.48.32.13.24-.05.43"/><path stroke="#2e68a9" vector-effect="non-scaling-stroke" d="M92.29 157.79q.1.1.26.03.14-.06.14-.21-.1-21.68-.08-43.85a.4.39 0 00-.4-.39q-.12-.01-.27.1"/><path stroke="#9aa3d2" vector-effect="non-scaling-stroke" d="M118.48 228.92q1.26.56 2.58 1.02.17.06.34.03.6-.1.15-1.14a.68.64 88.2 00-.37-.37l-4.09-1.58q-.74-.29-1.06.44l-2.17 5.12a.77.77 0 00.46 1.03l4.84 1.64q.69.23.62-.49l-.03-.43q-.05-.51-.53-.68l-2.02-.73a.73.73 0 01-.47-.82l.06-.35q.08-.43.49-.27 1.41.56 2.56.51.16 0 .3-.09.64-.39-.02-.72l-1.99-1.02q-.28-.14-.35-.44-.05-.2.02-.38.2-.49.68-.28M180.47 231.41q.35-.81.93-1.51a1.31 1.3-30.6 00.27-1.04c-.57-3.44-5.19-2.25-5.8.69a.58.58 0 00.85.62q1.1-.61 1.99-1.86a.33.33 0 01.55.01l.27.4a.25.23 42.6 01.02.24l-2.17 4.93a.56.56 0 00.64.77q2.7-.64 4.84-1.98 1.13-.71-.16-1.04-.87-.23-1.77.21-.84.41-.46-.44M172.75 233.15l.74 2.03q.3.83 1.18.81l.49-.02a.65.65 0 00.59-.9l-2.33-5.75a.56.56 0 00-.89-.2q-1.44 1.27-2.23 3.34-.27.72.47.51l1.04-.3q.69-.2.94.48M123.55 234.39a1.03 1.01 76.8 01.89.56q.43.84-.17.81-1.36-.08-2.11-1.38-.33-.58-.56.05l-.21.59a.48.47-58.8 00.12.5q1.41 1.35 3.37 1.64c1.28.2 1.91-1.2 1.59-2.26q-.13-.46-.6-.57-.7-.18-1.19-.68-.54-.57.23-.45.69.11 1.16.6a.54.54 0 00.78-.02l.21-.23q.3-.33.01-.66-1.21-1.4-3.31-1.41a1.5 1.5 0 00-1.09 2.53q.34.37.88.38M168.507 238.528a3.73 2.97 66 001.196-4.616 3.73 2.97 66 00-4.23-2.2 3.73 2.97 66 00-1.196 4.616 3.73 2.97 66 004.23 2.2M129.83 237.75q-.11-1.72 1.39-2.33a.69.68 73.7 00.41-.76l-.36-2.02q-.1-.58-.64-.36l-1.73.7a.84.81 84.4 00-.5.63l-.62 3.86q-.09.54.34.9.89.74 2.21.46a.12.12 0 00.05-.2l-.23-.21q-.29-.27-.32-.67M160.02 235.7q1.54-.56.79.9l-2.1 4.07a.62.62 0 00.77.87l4.8-1.8q.65-.25.26-.83-.21-.31-.54-.51-.47-.27-.85.11-.37.36-.89.47-.7.14-.48-.54.1-.3.32-.52c.83-.85.81-2.34.51-3.4q-.15-.54-.71-.64-3.79-.7-4.57 2.65-.09.41.5.58a.64.63-63.7 00.67-.23q.67-.88 1.52-1.18M135.12 235.74c-2.23-1.66-3.69.94-3.75 2.76q-.02.52.37.86 1.5 1.32 3.68 1.69.53.09.76-.4l2.2-4.8q.2-.43-.09-.82-.42-.59-1.09-.53-.58.05-.86.57-.19.37-.53.65t-.69.02M139.606 240.913a1.28.97-4.8 00-1.357-.86 1.28.97-4.8 00-1.195 1.074 1.28.97-4.8 001.357.86 1.28.97-4.8 001.195-1.074"/><path stroke="#5b4576" vector-effect="non-scaling-stroke" d="M157.43 98.68l.39 9.33"/><path stroke="#35447d" vector-effect="non-scaling-stroke" d="M145.1 109.87q-1.07-1.87-3.25-1.53"/><path stroke="#8b3f57" vector-effect="non-scaling-stroke" d="M126.84 186.37q1.61-2.38 0-4.78M125.21 181.42q-1.64 2.5.2 4.95"/><path stroke="#604da3" vector-effect="non-scaling-stroke" d="M55.59 204.71c-1.74 1.2-3.09 3.54-5.09 4.08a1.47 1.46 52.7 01-1.1-.15q-3.49-2.07-7.23-3.73-.33-.15-.45-.48l-.11-.3a.84.7-52.8 00-1.44.33c-.55 2.46.21 4.18.36 6.6.19 3.19 1.38 6.56 2.82 9.36q.56 1.1 1.66.53 3.87-2.01 7.53-4.39.8-.51 1.74-.71.52-.11 1.03.04 1.71.48 3.41.25a.85.84 70.1 00.6-1.29q-2.66-4.2-2.37-9.37a.87.87 0 00-1.36-.77M257.12 220.55q3.16-7.24 2.33-15.43a.83.83 0 00-1.14-.68q-3.02 1.22-5.96 3.3-2.91 2.05-5.17-.66-1.49-1.79-3.6-3.01a.36.36 0 00-.54.29c-.13 2.57-.03 6.5-1.49 8.6q-.7.99-.98 2.41-.3 1.56 1.23 1.13l3.78-1.06q.49-.13.9.17 4.18 3.09 9.3 5.45.93.44 1.34-.51"/><path stroke="#c0a4cb" vector-effect="non-scaling-stroke" d="M56.33 222.44a.61.61 0 001.01.25l3.55-3.54a.61.61 0 00-.37-1.04l-4.79-.47a.61.61 0 00-.64.79l1.24 4.01M245.22 218.6a.68.68 0 00-.7-.88l-4.78.34a.68.68 0 00-.44 1.15l3.57 3.6a.68.68 0 001.13-.27l1.22-3.94"/><path stroke="#604da3" vector-effect="non-scaling-stroke" d="M205.87 243.85q-9.66 3.6-25.9 9.34-.79.28-1.54.55-12.79 4.64-24.96 8.8c-2.67.91-5.03.8-7.49-.17q-1.47-.58-5.06-1.75-13.87-4.53-27.91-10-3.31-1.29-6.58-2.35-3.35-1.09-6.64-2.41-5.54-2.23-9.79-3.71-10.22-3.57-20.46-7.57-4.92-1.93-8.15-4.29-3.62-2.64-6.12-6.54-1.06-1.66-1.2-3.89a1.3 1.3 0 00-1.71-1.15q-.29.1-.58.14-.34.06-.63.23-6.05 3.74-12.56 7.26a.9.89 65.6 00-.41 1.11q5.54 14.19 19.17 20.18 12.19 5.35 15.92 6.67 7.17 2.53 14.23 5.31 4.11 1.61 13.73 4.83c4.89 1.63 9.75 3.77 14.79 5.47q9.68 3.26 19.99 7.16c1.9.72 3.9.62 5.84 1.41q7.26 2.97 14.1.99 10.76-3.12 22.04-7.26 7.46-2.74 14.63-5.34 7.02-2.54 14.67-5.3 8-2.89 15.72-5.78 15.16-5.67 22-9.14 6.21-3.14 9.75-7.23 1.26-1.46 2.61-2.92c2.15-2.32 3.57-5.41 4.75-8.33a1.93 1.92-65 00-.87-2.41L248.62 219q-1.08-.58-1.61.53-.77 1.63-1.44 3.33c-2.29 5.81-8.41 8.91-13.89 10.99q-7.2 2.74-14.35 5.76-2.7 1.14-5.7 2.17-2.56.88-5.76 2.07"/><path stroke="#9aa3d2" vector-effect="non-scaling-stroke" d="M48.89 235.14l.81-4.07q.16-.83-.63-1.11l-1.15-.42q-.81-.3-.87.56l-.39 6.03a1.73 1.72 10.4 001.22 1.76q2.1.64 3.83-2.25 1.65-2.74 1.11.41l-.39 2.33q-.19 1.13.88 1.55 1.83.72 3.07-.67 1.81-2.05 3.7-4.21.81-.92-.4-1.14-.25-.04-.48-.11-1.03-.34-1.68.52l-2.46 3.23q-.59.78-.42-.18l.77-4.28q.12-.68-.54-.9l-1.69-.55q-.59-.19-.98.28l-2.83 3.45q-.7.85-.48-.23M246.88 236.92q.62.3 1.04-.26.3-.4.8-.47 1.04-.17 1.92-.03.8.12.56-.66l-.36-1.14a1.65 1.65 0 00-1.27-1.12c-2.39-.43-7.37 1.6-5.62 4.8 1.51 2.77 5.4.94 7.26-.51q.16-.12.23-.3.1-.28-.06-.53a.47.47 0 00-.66-.12q-2.64 1.84-3.91 1.06-.12-.08-.18-.22-.06-.13-.07-.26-.06-.42.32-.24M239.9 239.25q.42 1.02.88 2.03.28.59.89.35l1.11-.45q.66-.26.41-.92-.64-1.69-1.5-2.91a2.32 2.31 51.9 00-3.42-.42q-1.51 1.32-3.5 1.39a.77.76-14.2 00-.67 1.11l1.88 3.78a.78.78 0 00.99.38l1.03-.41q.57-.22.35-.79l-.94-2.43q-.2-.51.09-.97c.61-.98 1.98-.75 2.4.26M63.58 240.15q-.59-.21-1.16-.02-.93.31-.04.73l2.45 1.18q.49.23.93-.07c.86-.59.87-1.77.22-2.51q-2.74-3.13-6.13-1.54a2.28 2.27 54.8 00-.63 3.68q2.04 2.03 5.04 2.29.25.03.46-.13.14-.1.2-.27.2-.51-.31-.71l-2.74-1.07q-.79-.31-.47-1.1l.4-1a1.07 1.07 0 011.36-.6q.97.36.86.89-.08.38-.44.25M231.061 237.792a1.15.61-21.3 00-1.293-.15 1.15.61-21.3 00-.85.986 1.15.61-21.3 001.294.15 1.15.61-21.3 00.85-.986M232.388 240.428a1.11 1.11 0 00-1.483-.516l-.324.156a1.11 1.11 0 00-.516 1.483l1.567 3.241a1.11 1.11 0 001.482.516l.325-.156a1.11 1.11 0 00.516-1.483l-1.567-3.241M77.7 246.47l.2-2.01a1.07 1.07 0 00-.17-.7q-.61-.96-1.72-.85-.41.03-.67.36l-1.51 1.9q-.69.88-.58-.24l.23-2.36q.1-1.08-.96-1.28l-.29-.06q-1.27-.25-1.23 1.05l.14 3.89q.02.57.54.81l1.4.62q.49.22.85-.18l1.43-1.62q.66-.74.66.25v1.69a1.68 1.68 0 002.65 1.37q1.96-1.37 3.61-3.56.23-.31-.11-.5l-1.24-.7q-.33-.19-.54.13-.86 1.33-2.13 2.3-.64.49-.56-.31M222.82 242.94l-.45-.92a1.45 1.44 74.2 00-1.44-.81l-.4.04q-1.15.12-.72 1.2l2.45 6.11q.21.53.78.43.79-.15 1.47-.53.32-.18.2-.53l-.83-2.5q-.39-1.15.71-1.66.5-.23 1.1 0a.8.78-.7 01.44.42l.97 2.24a1.01.99-10.6 00.89.6q.57.02 1.14-.19.66-.25.54-.94-.25-1.47-1.23-2.92c-1.18-1.74-3.56-1.37-4.77.06q-.5.61-.85-.1M85.12 243.81q-.88.01-.27.65.58.59 1.38.96a.46.46 0 00.64-.35q.05-.35-.19-.61-.6-.66-1.56-.65M217.02 246.98q.51-.53 1.23-.74a.69.69 0 00.5-.75l-.05-.33q-.07-.58-.63-.4-2.03.67-3.62 2.15c-.59.55-.61 1.55.04 2.07q.49.39 1.13.17.82-.28 1.71-.29 1.23 0 .28.77-.71.57-1.65.88-.29.09-.55.26-.8.52-.02.8.31.1.63.07 2.61-.26 4.47-2.18a.8.8 0 00.15-.88q-.49-1.08-1.62-1.33-.48-.11-.93.09-.37.17-.79.21-.9.08-.28-.57M91.275 246.91a.79.79 0 00-.405-1.041l-1.008-.443a.79.79 0 00-1.04.406l-2.678 6.099a.79.79 0 00.406 1.04l1.008.443a.79.79 0 001.04-.406l2.677-6.099M85.763 248.013a.95.95 0 00-.484-1.254l-.731-.324a.95.95 0 00-1.254.484l-1.377 3.108a.95.95 0 00.484 1.254l.731.324a.95.95 0 001.253-.484l1.378-3.108M207.692 247.007a.79.79 0 00-1.04-.41l-.862.375a.79.79 0 00-.41 1.04l2.688 6.18a.79.79 0 001.04.41l.862-.374a.79.79 0 00.41-1.04l-2.688-6.18M95.48 248.65a1.08 1.08 0 00-.571-1.417l-.479-.203a1.08 1.08 0 00-1.416.572l-2.415 5.689a1.08 1.08 0 00.572 1.416l.479.203a1.08 1.08 0 001.416-.572l2.415-5.689M203.655 248.988a1.12 1.12 0 00-1.464-.606l-.37.154a1.12 1.12 0 00-.605 1.463l2.35 5.673a1.12 1.12 0 001.463.606l.37-.154a1.12 1.12 0 00.605-1.463l-2.35-5.673M198.85 250.99q.29-.07.37-.44a.37.37 0 00-.34-.44q-1.96-.07-2.3 1.64-.14.68.45.32l1.61-1q.1-.06.21-.08M102.3 255.02l2.29-.14a.26.25 82.9 00.23-.3l-.05-.29a.84.84 0 00-.78-.7q-1.84-.11-3.08-1.39a.59.59 0 00-.96.17l-1.77 3.91q-.24.53.07 1.01.53.82 1.52.58.51-.13.74-.59l.79-1.59q.31-.63 1-.67M108.898 253.903a1.36.77 31.6 00-.754-1.369 1.36.77 31.6 00-1.562-.057 1.36.77 31.6 00.755 1.369 1.36.77 31.6 001.561.057M200.12 252.69a.73.73 0 00-1.2-.22l-.77.8a.73.73 0 00-.16.75l1.19 3.33a.73.73 0 00.65.48l1.36.06a.73.73 0 00.7-1.01l-1.77-4.19M193.8 257.77q-.73-.63-1.32-1.39-.42-.53-1-.75-.88-.34-1.57.4-.37.4-.29.94l.27 2.04q.11.82-.6.39-.9-.55-1.49-1.44a1.41 1.41 0 00-1.57-.58l-.45.13q-1.2.35-.32 1.24l2.87 2.89q.4.41.98.42 1.1.01 2-.61.44-.31.36-.85l-.24-1.59q-.17-1.1.64-.33l1.2 1.14a1.5 1.47-21.5 00.99.42c2.59.1 2.07-3.91 2.05-5.56q-.01-.74-.76-.69l-.7.06q-.79.06-.73.85l.2 2.61q.05.75-.52.26M105.4 255.37l-1.44 3.88a.49.49 0 00.29.63l.42.16a1.71 1.33 20.3 002.06-.66l.85-2.31a1.71 1.33 20.3 00-1.14-1.84l-.41-.15a.49.49 0 00-.63.29M112.33 258.3q.67-.09 1.31.39a2.52 1.91-13.7 00.87.38q.37.08.51-.46a.56.55 28.6 00-.17-.56q-2.04-1.72-4.71-1.34-.58.08-.74.65-.53 1.9 2.01 2.83a.45.44 22.9 01.25.61q-.22.48-.45.31-1.62-1.14-3.01-.69-.86.29-.08.76 2.28 1.4 4.87 1.55a.8.8 0 00.73-.38q1.23-2.09-1.5-3.2a.44.44 0 01.11-.85M118.15 262.83q.05-.25.29-.13l3.35 1.68q.57.28.91-.26c.72-1.14.43-2.62-.62-3.44q-2.34-1.8-5.56-.7a1.41 1.4-85.3 00-.78.67c-1.89 3.6 3.16 5.33 5.78 5.32q.09 0 .12-.09l.18-.54q.1-.29-.2-.34-1.87-.28-3.49-1.63-.07-.06-.05-.15l.07-.39M179.11 262.98q-.3-.02-.47.21-.38.53.28.56 1.07.06 2-.2a1.35 1.34 55.5 00.44-2.37q-2.47-1.85-5.41.39c-2.47 1.88-1.79 5.4 1.53 5.14q2.84-.23 4.78-2.03.51-.47-.17-.61l-.62-.13a.64.63 28.8 00-.57.16q-.83.78-1.97.87-.63.04-.96-.5l-1.05-1.75a.62.62 0 01.52-.94q1.11-.02 1.89.68.66.59-.22.52M164.87 268.58q-1.24-1.45-2.18-2.95-.56-.89-1.61-.96-.35-.03-.67.13a.67.66 59.4 00-.25.99l3.98 5.49q.47.65 1.22.35l1.32-.52q.88-.34.75-1.27l-.44-3.38q-.17-1.24.59-.24l2.15 2.87q.44.58 1.16.47.69-.11 1.44-.54.72-.4.69-1.22l-.18-6.5q-.03-.79-.75-.48l-1.07.45q-.82.36-.65 1.24l.78 3.93q.21 1.06-.51.25-1.32-1.48-2.4-3.09a1.34 1.33-9.3 00-.77-.55q-1.01-.25-1.93.2-.54.26-.51.86l.24 4.32q.03.66-.4.15M130.44 268.48q-.96-.43-.58-1.41l.91-2.33a.7.7 0 00-.33-.88q-.71-.36-1.48-.4-.49-.03-.7.42-.69 1.57-.95 2.99-.33 1.9 1.49 2.51l3.98 1.35q1.19.4 1.61-.79l1.23-3.47q.14-.4-.19-.66-.44-.35-1.02-.37a1.24 1.23 17.1 00-1.1.58l-1.35 2.19a.99.99 0 01-1.25.38l-.27-.11M139.77 272.57q2.35.68 4.47-.41a2.2 2.19 68.2 001.1-2.58c-1.2-3.99-4.63-1.5-7.11-2.98a.57.57 0 00-.85.34l-1.71 6.47q-.15.59.43.74l1.66.45q.83.22.98-.63l.14-.84q.13-.78.89-.56M167.745 237.138a2.23 1.11 68 00.194-2.484 2.23 1.11 68 00-1.864-1.652 2.23 1.11 68 00-.194 2.484 2.23 1.11 68 001.864 1.652"/><path stroke="#9aa3d2" vector-effect="non-scaling-stroke" d="M247.47 235.95q.45.04.6-.35a.69.68-81.4 00-.68-.93q-.92.06-1.27 1-.23.61.42.58.26-.01.48-.17a.71.64-58.1 01.45-.13M135.28 237.59q.21-1.26-.85-.55-.96.63-1.55 1.57-.46.73.4.77 1.68.1 2-1.79M120.99 262.42l.1-.67a.56.56 0 00-.27-.56q-1.29-.79-2.44-.09a.35.35 0 00-.16.37l.09.48q.07.4.44.23.85-.4 1.32.42a.5.5 0 00.92-.18M142.366 268.893a1.69 1.5-34.9 00-2.244-.263 1.69 1.5-34.9 00-.528 2.197 1.69 1.5-34.9 002.244.263 1.69 1.5-34.9 00.528-2.197"/></g><path fill="#2284a8" d="M166.81 27.39q.09.09.2.17a1.75 1.75 0 002.79-1.05l1.3-6.75q.22-1.09 1.32-.89l.52.09a1.43 1.42-77.1 011.11 1.78q-.61 2.21-.89 4.6c-1.02 8.89-12.26 5.57-9.67-2.66q.58-1.86.7-3.74.07-1.22 1.29-1.08l.36.05a1.33 1.33 0 011.18 1.39q-.12 2.79-.94 5.09-.63 1.74.73 3zM146.24 24.98c-2.32.07-2.98 2.78-1.64 4.39q.46.55-.25.65-.86.13-1.64-.09-.53-.14-.56-.69l-.16-3.81a1.34 1.34 0 011.08-1.37l3.59-.72a2.74 2.74 0 013.27 2.82l-.13 2.59q-.08 1.47-1.55 1.33l-.39-.04q-1.2-.12-.98-1.3.3-1.67.02-3.23-.1-.55-.66-.53zM137.916 27.034a4.71 3.6-6.9 01-4.243 4.14 4.71 3.6-6.9 01-5.109-3.008 4.71 3.6-6.9 014.244-4.14 4.71 3.6-6.9 015.108 3.008zm-6.666.566l1.06 2.06a.77.77 0 001.03.33l.4-.2a2.5 1.86-27.2 001.38-2.8l-.07-.12a2.5 1.86-27.2 00-3.07-.51l-.4.2a.77.77 0 00-.33 1.04zM192.28 25.65q-1.01-.4-1.75-.94-.74-.53.15-.7.82-.16 1.59.13.63.24.72.96.12.88-.71.55zM181.13 26.85q-.61.06-1.1.41-.48.35-.65.91-.41 1.34-.82 2.66-.14.44-.59.35l-1.02-.2q-.44-.09-.38-.53l.64-4.73a.84.84 0 01.74-.72q1.09-.11 2.09.34.45.21.92.02 1.55-.64 3.09.1.56.28.69.89.51 2.37.12 4.7a1.2 1.2 0 01-1.37.98q-.24-.04-.48-.09-.97-.17-.99-1.16l-.06-3.18a.77.76-2.8 00-.83-.75zM121.12 26.88a1.05 1.04 43.4 00-1.36.03q-1.41 1.28-2.92 1.03-1.35-.23-.15-.89 3.12-1.73 7-.92a1.11 1.09 84.7 01.79.67q.86 2.17.49 4.38a.92.92 0 01-.8.75c-2.55.3-4.93 1.63-7.45.51a.83.82 26 01-.4-1.14q1.2-2.24 3.61-2.44.77-.06 1.09-.19 1.53-.62.1-1.79zm-1.73 3.24a.45.44-30.9 00-.18.7q1.59 1.85 2.8-.49a.65.65 0 00-.82-.91l-1.8.7zM191.43 33.02a.28.28 0 01-.33.22l-.67-.14a2.04 1.72-78.2 01-1.27-2.35l.47-2.25a2.04 1.72-78.2 012.1-1.64l.67.13a.28.28 0 01.22.34l-1.19 5.69zM200.31 32.11q1.26-.79 1.71-2.19.4-1.25 1.68-.95l.5.12q1.36.33.52 1.44c-1.06 1.43-3.2 4.28-5.14 4.36a2.05 2.04-7 01-2.09-1.63l-.98-4.76q-.13-.63.52-.59 1.27.08 2.35.81.62.43.16 1.03-.74.96-.35 1.99a.77.77 0 001.12.37zM109.58 34.13q-.92-.22-1.64.39c-1.25 1.05-2.97.89-3.67-.76-.48-1.15-1.19-2.44-.41-3.63q1.56-2.36 4.4-1.73.49.11.97-.07.87-.32 1.77-.21.52.06.74.54c.93 2.13 2.7 7.37-.68 8.29q-1.58.42-3.09.83-1.11.3-2.09-.3-.57-.35-.51-.98.05-.59.64-.51 1.74.26 3.31-.06.72-.15.71-.88v-.34q0-.47-.45-.58zm.062-2.166a1.92 1.5 17.4 00-1.383-2.005 1.92 1.5 17.4 00-2.281.857 1.92 1.5 17.4 001.383 2.005 1.92 1.5 17.4 002.281-.857zM98.09 32.85q-.19 1.65-.09 3.4.07 1.11-.7 1.76a.7.69-30.1 01-1.1-.29l-1.93-5.27q-.25-.67.43-.89l4.44-1.44q.52-.17.79.3.16.29.08.62-.1.37-.41.6-.4.31-.87.45-.58.17-.64.76zM209.37 36.14q1.71 1.43 4.21.66.38-.11.35.27l-.03.5q-.02.24-.24.29-4.04 1.02-6.36-1.83a1.45 1.41 30.8 01-.3-1.12c.44-2.6 2.69-4.97 5.47-3.73q1.2.54 2.22 1.13a2.61 2.57-84.4 011.15 1.42q.53 1.55-.49 2.09-.51.28-1.07.09-2-.68-4.24-1.11a.8.79 10.6 00-.94.64q-.07.41.27.7zm.83-2.7a.31.31 0 00.22.42q.84.17 1.66.05.98-.13.37-.9l-.44-.55q-.46-.58-1.02-.1-.52.44-.79 1.08zM87.21 34.79c-1.64-.5-2.75 2.04-4.43 1.96q-1.38-.06-.26-.86 2.6-1.85 5.99-2.48a.98.98 0 01.95.35q1.64 2.03 2.16 4.75.12.57-.47.6l-1.04.07q-.52.03-.92.36-2.3 1.9-5.51 1.33a.8.8 0 01-.52-1.23q1.55-2.35 4.09-3.27a.83.83 0 00-.04-1.58zm2.04 3.23l-.73-1.14a.25.25 0 00-.35-.07l-.13.09a3.15.65-32.9 00-2.3 2.25l.31.47a3.15.65-32.9 003-1.16l.13-.09a.25.25 0 00.07-.35zM224.09 35.47q.69-.46 1.24.3.75 1.04-.53 1.18l-1.25.14q-.62.07-.9.62l-1.44 2.74q-.38.73-1.09.32-.27-.16-.47-.42-.6-.79-.24-1.72.72-1.86.65-3.92a.69.69 0 01.94-.67q1.03.42 1.73 1.24a1.04 1.03-36.8 001.36.19z"/><path fill="#854e9c" d="M41.78 77.65l-.46.18a1.29 1.29 0 01-1.74-1.18l-.15-5.09a1.01.99 72.9 01.44-.85c3.25-2.19 6.35-4.5 9.95-6.17 3.97-1.83 7.54-4.32 11.53-6.04 5.93-2.55 11.66-5.72 17.63-7.91q23.43-8.6 43.28-11.57 19.9-2.98 39.24-1.77c5.72.36 11.44.71 16.98 1.55q23.45 3.55 45.97 12.36c6.58 2.58 13.22 6.15 19.78 9.34q7.97 3.88 16.33 9.9a1.36 1.36 0 01.56 1.14l-.11 4.24q-.03.98-1 1.12-3.45.51-6.93 1.04c-6.44.99-11.25 4.33-14.19 10.44-3.3 6.87-2.96 13.58-2.96 20.93q.01 41.54.15 81.73.03 10.17-1.31 15.14-1.93 7.16-6.53 13.85c-3.11 4.53-8.47 7.3-13.72 9.2q-32.88 11.87-63.86 23.42-.55.2-1.11-.01-9.03-3.5-17.79-6.61-22.02-7.81-43.83-15.9c-9.04-3.35-15.53-7.82-19.87-16.64q-2.78-5.65-2.88-10.71-.25-12.76-.46-25.71-.07-4.49-.54-9.26c-.32-3.3.56-6.28.08-9.42q-.24-1.57-.25-3.03-.08-26.26.07-54.39.03-6.58-1.29-10.32c-2-5.64-8.52-12.15-14.94-12.5q-2.65-.15-5.12-.59a1.76 1.73 39.1 00-.95.09zm55.03 30.44l-31.23-.02q-.2 4.49.37 8.86.7 5.24.66 8.2-.19 15.88.04 31.76c.02 1.33.56 2.08 1.32 3.07l-1.28.32q-.47.12-.7.55-.33.63-.03 1.37.22.52.78.52l27.95.23q.03.3-.22.52-.18.16-.43.16-12.52-.09-24.81.31-.46.02-.86-.19-.65-.34-1.16.19-.49.49-.4 1.2c.4 3.03.06 5.8.09 8.8q.14 12.48.14 24.94 0 3.01.45 5.69.49 2.92 1.78 5.64 1.47 3.09 3.4 6.12 2.47 3.88 8.05 7.94 1.91 1.39 5.1 2.21c1.66.42 3 1.48 4.65 2.04q10.44 3.55 19.92 7.38 1.55.62 3.32 1.16 2.32.7 4.9 2.03 2.98 1.53 6.2 2.27 2.39.54 5.17 1.7c5.07 2.12 10.36 3.64 15.59 5.55q4.29 1.57 9.16.13 8.26-2.45 16.2-5.66 8.21-3.31 15.97-6.19 10.44-3.87 20.85-7.81 1.69-.64 3.63-1.01 1.86-.36 3.42-1.51 2.37-1.74 4.92-2.82 2.12-.89 4.12-2.92 3.04-3.07 4.71-5.75 1.15-1.83 2.31-4.2 1.52-3.09 1.97-5.9.37-2.31.72-4.82.33-2.39.36-4.84.17-18.85-.05-29.06-.03-1.15-.86-3.47 1.44-.49.76-2.59.25-3.61.27-10.19.05-25.56-.1-37.75-.01-1.18-.66-1.46l.62-1.45a.93.93 0 00-.86-1.3l-28.33-.05q-1.64 0-1.62-1.65l.12-7.66q.94 3.75.51 7.41a1.29 1.29 0 001.36 1.44q14.31-.8 28-.18a.87.86-89.1 00.9-.88c-.11-5.97-.33-14.11 2.82-19.09 1.14-1.8 2.04-3.87 3.55-5.37q7.04-7 17.42-6.77.58.01.77-.54.41-1.2.21-2.59-.09-.61-.63-.92-5.91-3.38-11.69-6.99-1.59-.99-3.67-1.96-2-.93-3.64-1.92-1.31-.78-4.87-2.02-2.65-.93-4.76-2.87-.38-.36-.89-.47-1.18-.25-2.25-.8-1.47-.75-2.96-1.19-4.32-1.26-8.76-2.85-22.52-8.07-47.09-10.07-1.74-.14-3.54-.43-1.61-.26-3.28-.48c-5.33-.71-11.01-.17-16.35-.47-1.87-.11-3.55.63-5.38-.18q-.52-.23-1.07-.06-1.75.55-3.62 1.09-1.83.53-3.64.77-13.69 1.8-27.19 4.86-5.18 1.17-10.57 3.09c-7.24 2.56-15.09 4.62-21.87 8.29-3.46 1.88-7.21 3.05-10.42 5.32q-.39.28-.85.13-.3-.11-.58.07-4.3 2.8-9.6 5.09a1.4 1.38 3.3 00-.65.57q-.36.59-.95.62-.43.03-.84.22-3.33 1.54-4.9 3.29-3.17 3.52 1.57 3.56 3.79.04 8.05 1.26 5.02 1.44 8.66 5.93 5.04 6.22 5.35 14.17c.08 2.13-.11 4.19.23 6.34q.23 1.46-.21 2.78-.14.44.27.65 1.62.82 3.45.74 13.92-.54 26.78.07.33.02.48.32.13.24-.05.43z"/><path fill="#2284a8" d="M73.97 40.73q-.4 1.89.52 3.4.35.57-.19.98l-1.25.96a.44.44 0 01-.69-.25q-.55-2.27-1.86-3.97-1.15-1.48.55-2.29 1.98-.95 4.58-1.56 1.69-.4 2.76.95 1.01 1.28 1.58 3.26.04.16-.09.26-1.32 1.01-2.71 1.29-.27.06-.22-.22.63-3.22-2.19-3.41a.75.75 0 00-.79.6zM231.91 40.48q.86 1.36 2.66 1.76.42.09.49.52.16 1.05-.46 1.89-.27.36-.71.4-3.95.38-6.51-2.21a.69.68 35.8 01-.13-.79l.12-.23a.33.33 0 01.52-.09q2.05 1.92 4.27 2.5.75.2.58-.56l-.06-.3q-.15-.68-.79-.95-1.77-.74-3.22-2.07a1.16 1.16 0 01.42-1.96q3.46-1.16 6.44 1.61a.68.67 37.3 01.12.85l-.19.3q-.29.47-.68.08-1.01-.98-1.92-1.65-2.79-2-.95.9z"/><path fill="#3a4caa" d="M203.2 98.68q-.84-13.7-6.86-26.06-2.39-4.9-5.07-7.65c-11.17-11.46-27.25-15.69-43.24-14.08-10.95 1.09-19.96 3.05-27.92 11.37q-3.32 3.46-4.28 7.05c-6.88 25.72 20.3 46 39.59 56.2 12.43 6.58 23.64 14.41 33.42 23.73q6.91 6.59 13.4 15.07.32.43.64-.01.78-1.07 1.87-1.08 14.39-.08 28.25-.44.83 2.32.86 3.47.22 10.21.05 29.06-.03 2.45-.36 4.84-.35 2.51-.72 4.82-.45 2.81-1.97 5.9-1.16 2.37-2.31 4.2-1.67 2.68-4.71 5.75-2 2.03-4.12 2.92-2.55 1.08-4.92 2.82-1.56 1.15-3.42 1.51-1.94.37-3.63 1.01-10.41 3.94-20.85 7.81-7.76 2.88-15.97 6.19-7.94 3.21-16.2 5.66-4.87 1.44-9.16-.13c-5.23-1.91-10.52-3.43-15.59-5.55q-2.78-1.16-5.17-1.7-3.22-.74-6.2-2.27-2.58-1.33-4.9-2.03-1.77-.54-3.32-1.16-9.48-3.83-19.92-7.38c-1.65-.56-2.99-1.62-4.65-2.04q-3.19-.82-5.1-2.21-5.58-4.06-8.05-7.94-1.93-3.03-3.4-6.12-1.29-2.72-1.78-5.64-.45-2.68-.45-5.69 0-12.46-.14-24.94c-.03-3 .31-5.77-.09-8.8q-.09-.71.4-1.2.51-.53 1.16-.19.4.21.86.19 12.29-.4 24.81-.31.25 0 .43-.16.25-.22.22-.52l1.79.4q.51.12.5.64-.31 10.8.66 21.42.82 8.95 3.99 18.23 4.96 14.51 17.62 20.09 20.31 8.96 40.05 3.43 16.2-4.54 22.99-19.41 1.25-2.75 1.86-5.93.61-3.16.56-5.74-.24-12.31-7.84-23.05c-8.1-11.44-20.58-20.57-33-27.13-15.19-8.02-30.78-16.87-42.55-28.94-1.17-1.2-2.21-2.47-2.85-4.07q-1.49-3.73-1.49.36l.02 45.73a1.11 1.1 5.6 01-1.32 1.08q-1.12-.21-2.34-.34-.68-.08-.95-.67-.23-.53-.1-1.26.1.1.26.03.14-.06.14-.21-.1-21.68-.08-43.85a.4.39 0 00-.4-.39q-.12-.01-.27.1-1.42-.91-3.22-.36-.49.15-.57.65-.21 1.23-.21 2.5-.01 20.71.26 42.46.01 1.09-1.07 1.2-1.43.15-2.65-.16-.72-.18-.71-.92l.18-44.61a1.25 1.24-89.3 00-1.22-1.26l-1.43-.03a1.3 1.3 0 00-1.32 1.31q.35 24.52.07 45-.01.67-.68.67l-3.81.02q-.63 0-.63-.63l.11-45.03q0-1.52-1.52-1.46l-1 .05q-1.5.06-1.5 1.57l.03 44.77q0 .52-.52.56l-2.56.19c-.76-.99-1.3-1.74-1.32-3.07q-.23-15.88-.04-31.76.04-2.96-.66-8.2-.57-4.37-.37-8.86 2.06 2.92 4.18 2.92 11.75.01 23.49.03 1.59 0 2.43-.36 1.86-.8 1.13-2.57.18-.19.05-.43-.15-.3-.48-.32-12.86-.61-26.78-.07-1.83.08-3.45-.74-.41-.21-.27-.65.44-1.32.21-2.78c-.34-2.15-.15-4.21-.23-6.34q-.31-7.95-5.35-14.17-3.64-4.49-8.66-5.93-4.26-1.22-8.05-1.26-4.74-.04-1.57-3.56 1.57-1.75 4.9-3.29.41-.19.84-.22.59-.03.95-.62a1.4 1.38 3.3 01.65-.57q5.3-2.29 9.6-5.09.28-.18.58-.07.46.15.85-.13c3.21-2.27 6.96-3.44 10.42-5.32 6.78-3.67 14.63-5.73 21.87-8.29q5.39-1.92 10.57-3.09 13.5-3.06 27.19-4.86 1.81-.24 3.64-.77 1.87-.54 3.62-1.09.55-.17 1.07.06c1.83.81 3.51.07 5.38.18 5.34.3 11.02-.24 16.35.47q1.67.22 3.28.48 1.8.29 3.54.43 24.57 2 47.09 10.07 4.44 1.59 8.76 2.85 1.49.44 2.96 1.19 1.07.55 2.25.8.51.11.89.47 2.11 1.94 4.76 2.87 3.56 1.24 4.87 2.02 1.64.99 3.64 1.92 2.08.97 3.67 1.96 5.78 3.61 11.69 6.99.54.31.63.92.2 1.39-.21 2.59-.19.55-.77.54-10.38-.23-17.42 6.77c-1.51 1.5-2.41 3.57-3.55 5.37-3.15 4.98-2.93 13.12-2.82 19.09a.87.86-89.1 01-.9.88q-13.69-.62-28 .18a1.29 1.29 0 01-1.36-1.44q.43-3.66-.51-7.41zm-84.72 130.24q1.26.56 2.58 1.02.17.06.34.03.6-.1.15-1.14a.68.64 88.2 00-.37-.37l-4.09-1.58q-.74-.29-1.06.44l-2.17 5.12a.77.77 0 00.46 1.03l4.84 1.64q.69.23.62-.49l-.03-.43q-.05-.51-.53-.68l-2.02-.73a.73.73 0 01-.47-.82l.06-.35q.08-.43.49-.27 1.41.56 2.56.51.16 0 .3-.09.64-.39-.02-.72l-1.99-1.02q-.28-.14-.35-.44-.05-.2.02-.38.2-.49.68-.28zm61.99 2.49q.35-.81.93-1.51a1.31 1.3-30.6 00.27-1.04c-.57-3.44-5.19-2.25-5.8.69a.58.58 0 00.85.62q1.1-.61 1.99-1.86a.33.33 0 01.55.01l.27.4a.25.23 42.6 01.02.24l-2.17 4.93a.56.56 0 00.64.77q2.7-.64 4.84-1.98 1.13-.71-.16-1.04-.87-.23-1.77.21-.84.41-.46-.44zm-7.72 1.74l.74 2.03q.3.83 1.18.81l.49-.02a.65.65 0 00.59-.9l-2.33-5.75a.56.56 0 00-.89-.2q-1.44 1.27-2.23 3.34-.27.72.47.51l1.04-.3q.69-.2.94.48zm-49.2 1.24a1.03 1.01 76.8 01.89.56q.43.84-.17.81-1.36-.08-2.11-1.38-.33-.58-.56.05l-.21.59a.48.47-58.8 00.12.5q1.41 1.35 3.37 1.64c1.28.2 1.91-1.2 1.59-2.26q-.13-.46-.6-.57-.7-.18-1.19-.68-.54-.57.23-.45.69.11 1.16.6a.54.54 0 00.78-.02l.21-.23q.3-.33.01-.66-1.21-1.4-3.31-1.41a1.5 1.5 0 00-1.09 2.53q.34.37.88.38zm44.957 4.138a3.73 2.97 66 001.196-4.616 3.73 2.97 66 00-4.23-2.2 3.73 2.97 66 00-1.196 4.616 3.73 2.97 66 004.23 2.2zm-38.677-.778q-.11-1.72 1.39-2.33a.69.68 73.7 00.41-.76l-.36-2.02q-.1-.58-.64-.36l-1.73.7a.84.81 84.4 00-.5.63l-.62 3.86q-.09.54.34.9.89.74 2.21.46a.12.12 0 00.05-.2l-.23-.21q-.29-.27-.32-.67zm30.19-2.05q1.54-.56.79.9l-2.1 4.07a.62.62 0 00.77.87l4.8-1.8q.65-.25.26-.83-.21-.31-.54-.51-.47-.27-.85.11-.37.36-.89.47-.7.14-.48-.54.1-.3.32-.52c.83-.85.81-2.34.51-3.4q-.15-.54-.71-.64-3.79-.7-4.57 2.65-.09.41.5.58a.64.63-63.7 00.67-.23q.67-.88 1.52-1.18zm-24.9.04c-2.23-1.66-3.69.94-3.75 2.76q-.02.52.37.86 1.5 1.32 3.68 1.69.53.09.76-.4l2.2-4.8q.2-.43-.09-.82-.42-.59-1.09-.53-.58.05-.86.57-.19.37-.53.65t-.69.02zm4.486 5.173a1.28.97-4.8 00-1.357-.86 1.28.97-4.8 00-1.195 1.074 1.28.97-4.8 001.357.86 1.28.97-4.8 001.195-1.074z"/><path fill="#2284a8" d="M241.69 41.12q-.37.15-.52-.46a.48.47 76.2 01.35-.58q1.25-.3 2.32.41.41.27.21.71l-.16.38a.34.34 0 01-.45.18l-1.37-.62q-.18-.09-.38-.02z"/><rect fill="#2284a8" x="-1.32" y="-3.22" transform="rotate(28.3 30.616 499.36)" width="2.64" height="6.44" rx=".92"/><path fill="#2284a8" d="M67.817 44.8a4.56 3.26-18.4 01-3.298 4.533 4.56 3.26-18.4 01-5.356-1.654 4.56 3.26-18.4 013.298-4.532 4.56 3.26-18.4 015.356 1.654zm-3.98 3.341a2.04 1.64 76.2 001.106-2.372 2.04 1.64 76.2 00-2.08-1.59 2.04 1.64 76.2 00-1.106 2.372 2.04 1.64 76.2 002.08 1.59zM250.61 46.14l.81.65q1.28 1.03-.36 1.12-2.22.12-2.91 1.42-.3.55-.02 1.11l.78 1.57q.53 1.06-.6.71-4.47-1.4-2.41-4.69.56-.9.69-2.15.04-.39.32-.66 1.11-1.08 2.68-1.34.46-.08.79.24.38.36.06.82-.47.68.17 1.2zM54.47 50.99c-2-.35-3.29 1.36-5.2.98q-1.52-.29-2.77-1.88-.83-1.05.01-2.13c1.14-1.49 3.6-4.04 5.48-2.49q.35.28.09.65-.7.97-1.9.87-.51-.04-.82.38-.57.77-.42 1.81a.98.98 0 001.42.73l3.8-1.97q.5-.26.97.03 1.62.99 2.6 2.6a2.09 2.08-37.1 01-.37 2.64Q55.38 55 52.82 56a.6.6 0 01-.81-.48q-.11-.78.48-1.35 1.23-1.21 2.24-2.51.42-.54-.26-.67zM256.82 54.05q1.07-.25 1.92-1.24.37-.43.91-.63 1.12-.42 2.15.16a.62.62 0 01.05 1.06q-2.93 2.02-5.95 3.98-1.98 1.29-3.87.18-1.6-.93.2-1.37l.98-.23a.97.96 84.2 00.74-.92l.14-5.49a.82.82 0 011.3-.64q2.43 1.76.97 4.54-.43.81.46.6z"/><path fill="#e56e7b" d="M163.69 74.05q-1.2 1.74-2.08 3.66c-1.2 2.59-3.32 4.06-4.86 6.3q-1.54 2.26-1.85 5.32-.08.72-.55.17c-3.43-4.1.06-11.54 3.96-13.96 4.96-3.08 5.03-8.65 4.7-13.9q-.09-1.4.61-.18 2.49 4.33 3.98 9.87c1.16 4.34-2 11.68-4.27 15.39q-1.62 2.65-2.83 5.71-.43 1.09-.47-.08c-.07-2.32-1.06-4.71-.25-6.92q1.33-3.65 3.32-6.32c.86-1.15 1.4-2.54 1.72-3.92q.17-.73-.38-1.22-.43-.38-.75.08z"/><ellipse fill="#e56e7b" transform="rotate(106.8 51.304 95.106)" rx="2.37" ry=".53"/><path fill="#303b4f" d="M157.43 98.68l.39 9.33-.03 9.27q0 .55-.42.2-5.7-4.66-12.27-7.61-1.07-1.87-3.25-1.53-2.78-1.37-4.01-4.34-.9-2.16-.92-5.2-.05-7.96-1-16.03-.15-1.23.75-.38 5.33 5.1 12.15 8.01 3.23 1.38 5.21 3.03 2.72 2.26 3.4 5.25z"/><path fill="#e56e7b" d="M173.7 109.71q-6.4 2.77-11.91 7.04a.49.48 71.9 01-.78-.4q.18-8.25.96-17.08.41-4.58 4.98-6.75 8.12-3.85 14.04-8.55a.49.49 0 01.79.33q.77 7.24.09 15.79c-.43 5.43-3.67 7.68-8.17 9.62z"/><path fill="#854e9c" d="M157.43 98.68q.91 4.84.39 9.33l-.39-9.33z"/><path fill="#3a4caa" d="M145.1 109.87l-3.25-1.53q2.18-.34 3.25 1.53zM233.27 110.79q.65.28.66 1.46.15 12.19.1 37.75-.02 6.58-.27 10.19-2.47.26-4.37-.54-.41-.17-.41-.62l.04-45.04a1.01 1 89.2 00-1.03-1.01l-2.03.05a1.01 1 89.1 00-.97 1.01v45q0 .9-.89.9l-2.2.01q-.93 0-.93-.92l.04-45.04q0-1.01-1.02-1l-3.01.02q-1 .01-1 1.01l.04 45.02a.9.9 0 01-.94.9l-2.12-.08q-.8-.03-.85-.83c-.77-12.97-.56-26.04-.16-37.65q.14-4.27-.16-7.47-.08-.89-.98-.93l-1.83-.08q-.92-.04-.92.88l-.01 44.92q0 1.24-1.25 1.28l-2.4.06a1.38 1.38 0 01-1.42-1.39l.1-48.17q0-.99.83-.46 1.9 1.2 4.09 1.19 12.69-.08 25.27-.42z"/><path fill="#2284a8" d="M92.29 157.79q-.4-1.3-.38-2.78.21-20.68.03-41.54.15-.11.27-.1a.4.39 0 01.4.39q-.02 22.17.08 43.85 0 .15-.14.21-.16.07-.26-.03z"/><path fill="#e5425e" d="M126.84 186.37q1.61-2.38 0-4.78l.03-23.3a.43.43 0 00-.59-.4l-.37.14q-.91.36-.9 1.35l.2 22.04q-1.64 2.5.2 4.95-.52 2.85-.06 5.88.05.32-.1.62-.09.19-.1.38-.07 5.15-.27 9.64-.11 2.32-.64.06-2.08-8.92-10.05-14.6-.4-.29-.13-.71 1.69-2.51 2.35-5.42 2.41-10.72 3.3-23.29a.71.71 0 00-.4-.7c-2-.98-2.28-5.52-2.36-7.36q-.03-.64.61-.67 8.49-.47 17.44.86a1.33 1.33 0 011.11 1.5q-.32 2.38-1.7 4.28c-1.38 1.92-1.33 3.81-1.18 6.03q.73 11.23 3.24 20.63.51 1.87 1.4 3.6a1.62 1.62 0 01-.48 2.05q-8.11 5.95-9.88 16.14-.01.07-.07.06l-.32-.04a.31.31 0 01-.28-.31v-18.63z"/><path fill="#303b4f" d="M125.21 181.42q.57.6 1.63.17 1.61 2.4 0 4.78-.36-.44-.59-.48-.44-.07-.84.48-1.84-2.45-.2-4.95zM165.48 190.52a.27.27 0 01.29.25l.36 4.95a20.89.96 85.9 01.53 20.9l-.7.05a20.89.96 85.9 01-2.45-20.77l-.35-4.94a.27.27 0 01.25-.29l2.07-.15z"/><path fill="#854e9c" d="M242.5 224.04q-2.7-3.26-5.86-5.37-.43-.29-.09-.68 5.09-5.83 4.52-13.34c-.11-1.47-.65-2.87-.6-4.28a.42.42 0 01.69-.31l8.15 6.62a1.5 1.49 49.8 001.67.15l8.76-4.81a.82.82 0 011.22.72c.01 6.71.87 12.22-2.99 18.17a1.31 1.3-62.8 00.61 1.93q2.85 1.13 5.06 3.17a.92.92 0 01.22 1.03q-2.44 5.97-3.91 7.91-7.66 10.13-18.08 14.7-8.09 3.54-29.85 11.58-20.33 7.51-44.45 15.87c-5.14 1.79-10.25 3.72-15.57 4.84-2.43.51-5.09-.07-7.41-.84q-42.93-14.21-84.72-30.86-15.31-6.09-22.29-20.29-.81-1.64-1.27-3.4-.16-.61.4-.89l4.21-2.1a2.19 2.18 62.7 00.95-2.99c-3.09-5.82-3.26-12.04-2.81-19.06q.03-.54.47-.22 4.27 3.08 9.85 5.32.41.17.85.09c2.95-.56 5.68-4.01 7.73-6.01q2.26-2.2 1.54.87-.74 3.16-.51 6.37c.26 3.78 2.54 7.46 4.67 10.55a.4.39-40.2 01-.05.51q-2.3 2.34-4.63 4.46-1.82 1.66.17 3.4c3.05 2.67 6.41 4.52 10.17 6q37.43 14.8 78.4 28.64 2.51.85 5.01-.02 8.69-3.02 17.25-6 32.02-11.13 62.19-23.07 6.45-2.56 10.34-7.44.37-.46-.01-.92zM55.59 204.71c-1.74 1.2-3.09 3.54-5.09 4.08a1.47 1.46 52.7 01-1.1-.15q-3.49-2.07-7.23-3.73-.33-.15-.45-.48l-.11-.3a.84.7-52.8 00-1.44.33c-.55 2.46.21 4.18.36 6.6.19 3.19 1.38 6.56 2.82 9.36q.56 1.1 1.66.53 3.87-2.01 7.53-4.39.8-.51 1.74-.71.52-.11 1.03.04 1.71.48 3.41.25a.85.84 70.1 00.6-1.29q-2.66-4.2-2.37-9.37a.87.87 0 00-1.36-.77zm201.53 15.84q3.16-7.24 2.33-15.43a.83.83 0 00-1.14-.68q-3.02 1.22-5.96 3.3-2.91 2.05-5.17-.66-1.49-1.79-3.6-3.01a.36.36 0 00-.54.29c-.13 2.57-.03 6.5-1.49 8.6q-.7.99-.98 2.41-.3 1.56 1.23 1.13l3.78-1.06q.49-.13.9.17 4.18 3.09 9.3 5.45.93.44 1.34-.51zm-200.79 1.89a.61.61 0 001.01.25l3.55-3.54a.61.61 0 00-.37-1.04l-4.79-.47a.61.61 0 00-.64.79l1.24 4.01zm188.89-3.84a.68.68 0 00-.7-.88l-4.78.34a.68.68 0 00-.44 1.15l3.57 3.6a.68.68 0 001.13-.27l1.22-3.94zm-39.35 25.25q-9.66 3.6-25.9 9.34-.79.28-1.54.55-12.79 4.64-24.96 8.8c-2.67.91-5.03.8-7.49-.17q-1.47-.58-5.06-1.75-13.87-4.53-27.91-10-3.31-1.29-6.58-2.35-3.35-1.09-6.64-2.41-5.54-2.23-9.79-3.71-10.22-3.57-20.46-7.57-4.92-1.93-8.15-4.29-3.62-2.64-6.12-6.54-1.06-1.66-1.2-3.89a1.3 1.3 0 00-1.71-1.15q-.29.1-.58.14-.34.06-.63.23-6.05 3.74-12.56 7.26a.9.89 65.6 00-.41 1.11q5.54 14.19 19.17 20.18 12.19 5.35 15.92 6.67 7.17 2.53 14.23 5.31 4.11 1.61 13.73 4.83c4.89 1.63 9.75 3.77 14.79 5.47q9.68 3.26 19.99 7.16c1.9.72 3.9.62 5.84 1.41q7.26 2.97 14.1.99 10.76-3.12 22.04-7.26 7.46-2.74 14.63-5.34 7.02-2.54 14.67-5.3 8-2.89 15.72-5.78 15.16-5.67 22-9.14 6.21-3.14 9.75-7.23 1.26-1.46 2.61-2.92c2.15-2.32 3.57-5.41 4.75-8.33a1.93 1.92-65 00-.87-2.41L248.62 219q-1.08-.58-1.61.53-.77 1.63-1.44 3.33c-2.29 5.81-8.41 8.91-13.89 10.99q-7.2 2.74-14.35 5.76-2.7 1.14-5.7 2.17-2.56.88-5.76 2.07z"/><path fill="#303b4f" d="M155.99 212.19q.24-2.82-1.03-5.42-1.03-2.09.04-4.18a.82.82 0 011.5.11q1.83 5.36 1.42 13.27a.99.98.9 01-.98.94q-9.17.07-18.43.24-3.3.06-7.63-1.21c-3.91-1.14-5.25-4.84-5.64-8.4a.76.76 0 01.68-.84l.33-.04a.25.25 0 01.28.22q.64 5.22 6.27 5.81 8.71.92 22.39.27.73-.04.8-.77z"/><path fill="#3a4caa" d="M55.59 204.71a.87.87 0 011.36.77q-.29 5.17 2.37 9.37a.85.84 70.1 01-.6 1.29q-1.7.23-3.41-.25-.51-.15-1.03-.04-.94.2-1.74.71-3.66 2.38-7.53 4.39-1.1.57-1.66-.53c-1.44-2.8-2.63-6.17-2.82-9.36-.15-2.42-.91-4.14-.36-6.6a.84.7-52.8 011.44-.33l.11.3q.12.33.45.48 3.74 1.66 7.23 3.73a1.47 1.46 52.7 001.1.15c2-.54 3.35-2.88 5.09-4.08zM257.12 220.55q-.41.95-1.34.51-5.12-2.36-9.3-5.45-.41-.3-.9-.17l-3.78 1.06q-1.53.43-1.23-1.13.28-1.42.98-2.41c1.46-2.1 1.36-6.03 1.49-8.6a.36.36 0 01.54-.29q2.11 1.22 3.6 3.01 2.26 2.71 5.17.66 2.94-2.08 5.96-3.3a.83.83 0 011.14.68q.83 8.19-2.33 15.43z"/><path fill="#fafaf9" d="M56.33 222.44l-1.24-4.01a.61.61 0 01.64-.79l4.79.47a.61.61 0 01.37 1.04l-3.55 3.54a.61.61 0 01-1.01-.25zM245.22 218.6l-1.22 3.94a.68.68 0 01-1.13.27l-3.57-3.6a.68.68 0 01.44-1.15l4.78-.34a.68.68 0 01.7.88z"/><path fill="#3a4caa" d="M205.87 243.85q3.2-1.19 5.76-2.07 3-1.03 5.7-2.17 7.15-3.02 14.35-5.76c5.48-2.08 11.6-5.18 13.89-10.99q.67-1.7 1.44-3.33.53-1.11 1.61-.53l12.63 6.76a1.93 1.92-65 01.87 2.41c-1.18 2.92-2.6 6.01-4.75 8.33q-1.35 1.46-2.61 2.92-3.54 4.09-9.75 7.23-6.84 3.47-22 9.14-7.72 2.89-15.72 5.78-7.65 2.76-14.67 5.3-7.17 2.6-14.63 5.34-11.28 4.14-22.04 7.26-6.84 1.98-14.1-.99c-1.94-.79-3.94-.69-5.84-1.41q-10.31-3.9-19.99-7.16c-5.04-1.7-9.9-3.84-14.79-5.47q-9.62-3.22-13.73-4.83-7.06-2.78-14.23-5.31-3.73-1.32-15.92-6.67-13.63-5.99-19.17-20.18a.9.89 65.6 01.41-1.11q6.51-3.52 12.56-7.26.29-.17.63-.23.29-.04.58-.14a1.3 1.3 0 011.71 1.15q.14 2.23 1.2 3.89 2.5 3.9 6.12 6.54 3.23 2.36 8.15 4.29 10.24 4 20.46 7.57 4.25 1.48 9.79 3.71 3.29 1.32 6.64 2.41 3.27 1.06 6.58 2.35 14.04 5.47 27.91 10 3.59 1.17 5.06 1.75c2.46.97 4.82 1.08 7.49.17q12.17-4.16 24.96-8.8.75-.27 1.54-.55 16.24-5.74 25.9-9.34zm-156.98-8.71l.81-4.07q.16-.83-.63-1.11l-1.15-.42q-.81-.3-.87.56l-.39 6.03a1.73 1.72 10.4 001.22 1.76q2.1.64 3.83-2.25 1.65-2.74 1.11.41l-.39 2.33q-.19 1.13.88 1.55 1.83.72 3.07-.67 1.81-2.05 3.7-4.21.81-.92-.4-1.14-.25-.04-.48-.11-1.03-.34-1.68.52l-2.46 3.23q-.59.78-.42-.18l.77-4.28q.12-.68-.54-.9l-1.69-.55q-.59-.19-.98.28l-2.83 3.45q-.7.85-.48-.23zm197.99 1.78q.62.3 1.04-.26.3-.4.8-.47 1.04-.17 1.92-.03.8.12.56-.66l-.36-1.14a1.65 1.65 0 00-1.27-1.12c-2.39-.43-7.37 1.6-5.62 4.8 1.51 2.77 5.4.94 7.26-.51q.16-.12.23-.3.1-.28-.06-.53a.47.47 0 00-.66-.12q-2.64 1.84-3.91 1.06-.12-.08-.18-.22-.06-.13-.07-.26-.06-.42.32-.24zm-6.98 2.33q.42 1.02.88 2.03.28.59.89.35l1.11-.45q.66-.26.41-.92-.64-1.69-1.5-2.91a2.32 2.31 51.9 00-3.42-.42q-1.51 1.32-3.5 1.39a.77.76-14.2 00-.67 1.11l1.88 3.78a.78.78 0 00.99.38l1.03-.41q.57-.22.35-.79l-.94-2.43q-.2-.51.09-.97c.61-.98 1.98-.75 2.4.26zm-176.32.9q-.59-.21-1.16-.02-.93.31-.04.73l2.45 1.18q.49.23.93-.07c.86-.59.87-1.77.22-2.51q-2.74-3.13-6.13-1.54a2.28 2.27 54.8 00-.63 3.68q2.04 2.03 5.04 2.29.25.03.46-.13.14-.1.2-.27.2-.51-.31-.71l-2.74-1.07q-.79-.31-.47-1.1l.4-1a1.07 1.07 0 011.36-.6q.97.36.86.89-.08.38-.44.25zm167.481-2.358a1.15.61-21.3 00-1.293-.15 1.15.61-21.3 00-.85.986 1.15.61-21.3 001.294.15 1.15.61-21.3 00.85-.986zm1.327 2.636a1.11 1.11 0 00-1.483-.516l-.324.156a1.11 1.11 0 00-.516 1.483l1.567 3.241a1.11 1.11 0 001.482.516l.325-.156a1.11 1.11 0 00.516-1.483l-1.567-3.241zM77.7 246.47l.2-2.01a1.07 1.07 0 00-.17-.7q-.61-.96-1.72-.85-.41.03-.67.36l-1.51 1.9q-.69.88-.58-.24l.23-2.36q.1-1.08-.96-1.28l-.29-.06q-1.27-.25-1.23 1.05l.14 3.89q.02.57.54.81l1.4.62q.49.22.85-.18l1.43-1.62q.66-.74.66.25v1.69a1.68 1.68 0 002.65 1.37q1.96-1.37 3.61-3.56.23-.31-.11-.5l-1.24-.7q-.33-.19-.54.13-.86 1.33-2.13 2.3-.64.49-.56-.31zm145.12-3.53l-.45-.92a1.45 1.44 74.2 00-1.44-.81l-.4.04q-1.15.12-.72 1.2l2.45 6.11q.21.53.78.43.79-.15 1.47-.53.32-.18.2-.53l-.83-2.5q-.39-1.15.71-1.66.5-.23 1.1 0a.8.78-.7 01.44.42l.97 2.24a1.01.99-10.6 00.89.6q.57.02 1.14-.19.66-.25.54-.94-.25-1.47-1.23-2.92c-1.18-1.74-3.56-1.37-4.77.06q-.5.61-.85-.1zm-137.7.87q-.88.01-.27.65.58.59 1.38.96a.46.46 0 00.64-.35q.05-.35-.19-.61-.6-.66-1.56-.65zm131.9 3.17q.51-.53 1.23-.74a.69.69 0 00.5-.75l-.05-.33q-.07-.58-.63-.4-2.03.67-3.62 2.15c-.59.55-.61 1.55.04 2.07q.49.39 1.13.17.82-.28 1.71-.29 1.23 0 .28.77-.71.57-1.65.88-.29.09-.55.26-.8.52-.02.8.31.1.63.07 2.61-.26 4.47-2.18a.8.8 0 00.15-.88q-.49-1.08-1.62-1.33-.48-.11-.93.09-.37.17-.79.21-.9.08-.28-.57zm-125.745-.07a.79.79 0 00-.405-1.041l-1.008-.443a.79.79 0 00-1.04.406l-2.678 6.099a.79.79 0 00.406 1.04l1.008.443a.79.79 0 001.04-.406l2.677-6.099zm-5.512 1.103a.95.95 0 00-.484-1.254l-.731-.324a.95.95 0 00-1.254.484l-1.377 3.108a.95.95 0 00.484 1.254l.731.324a.95.95 0 001.253-.484l1.378-3.108zm121.929-1.006a.79.79 0 00-1.04-.41l-.862.375a.79.79 0 00-.41 1.04l2.688 6.18a.79.79 0 001.04.41l.862-.374a.79.79 0 00.41-1.04l-2.688-6.18zM95.48 248.65a1.08 1.08 0 00-.572-1.416l-.479-.203a1.08 1.08 0 00-1.416.572l-2.415 5.689a1.08 1.08 0 00.572 1.416l.479.203a1.08 1.08 0 001.416-.572l2.415-5.689zm108.174.34a1.12 1.12 0 00-1.464-.607l-.37.154a1.12 1.12 0 00-.605 1.463l2.35 5.673a1.12 1.12 0 001.463.606l.37-.154a1.12 1.12 0 00.605-1.463l-2.35-5.673zm-4.805 2.001q.29-.07.37-.44a.37.37 0 00-.34-.44q-1.96-.07-2.3 1.64-.14.68.45.32l1.61-1q.1-.06.21-.08zm-96.55 4.03l2.29-.14a.26.25 82.9 00.23-.3l-.05-.29a.84.84 0 00-.78-.7q-1.84-.11-3.08-1.39a.59.59 0 00-.96.17l-1.77 3.91q-.24.53.07 1.01.53.82 1.52.58.51-.13.74-.59l.79-1.59q.31-.63 1-.67zm6.598-1.117a1.36.77 31.6 00-.754-1.369 1.36.77 31.6 00-1.562-.057 1.36.77 31.6 00.755 1.369 1.36.77 31.6 001.561.057zm91.222-1.213a.73.73 0 00-1.2-.22l-.77.8a.73.73 0 00-.16.75l1.19 3.33a.73.73 0 00.65.48l1.36.06a.73.73 0 00.7-1.01l-1.77-4.19zm-6.32 5.08q-.73-.63-1.32-1.39-.42-.53-1-.75-.88-.34-1.57.4-.37.4-.29.94l.27 2.04q.11.82-.6.39-.9-.55-1.49-1.44a1.41 1.41 0 00-1.57-.58l-.45.13q-1.2.35-.32 1.24l2.87 2.89q.4.41.98.42 1.1.01 2-.61.44-.31.36-.85l-.24-1.59q-.17-1.1.64-.33l1.2 1.14a1.5 1.47-21.5 00.99.42c2.59.1 2.07-3.91 2.05-5.56q-.01-.74-.76-.69l-.7.06q-.79.06-.73.85l.2 2.61q.05.75-.52.26zm-88.4-2.4l-1.44 3.88a.49.49 0 00.29.63l.42.16a1.71 1.33 20.3 002.06-.66l.85-2.31a1.71 1.33 20.3 00-1.14-1.84l-.41-.15a.49.49 0 00-.63.29zm6.93 2.93q.67-.09 1.31.39a2.52 1.91-13.7 00.87.38q.37.08.51-.46a.56.55 28.6 00-.17-.56q-2.04-1.72-4.71-1.34-.58.08-.74.65-.53 1.9 2.01 2.83a.45.44 22.9 01.25.61q-.22.48-.45.31-1.62-1.14-3.01-.69-.86.29-.08.76 2.28 1.4 4.87 1.55a.8.8 0 00.73-.38q1.23-2.09-1.5-3.2a.44.44 0 01.11-.85zm5.82 4.53q.05-.25.29-.13l3.35 1.68q.57.28.91-.26c.72-1.14.43-2.62-.62-3.44q-2.34-1.8-5.56-.7a1.41 1.4-85.3 00-.78.67c-1.89 3.6 3.16 5.33 5.78 5.32q.09 0 .12-.09l.18-.54q.1-.29-.2-.34-1.87-.28-3.49-1.63-.07-.06-.05-.15l.07-.39zm60.96.15q-.3-.02-.47.21-.38.53.28.56 1.07.06 2-.2a1.35 1.34 55.5 00.44-2.37q-2.47-1.85-5.41.39c-2.47 1.88-1.79 5.4 1.53 5.14q2.84-.23 4.78-2.03.51-.47-.17-.61l-.62-.13a.64.63 28.8 00-.57.16q-.83.78-1.97.87-.63.04-.96-.5l-1.05-1.75a.62.62 0 01.52-.94q1.11-.02 1.89.68.66.59-.22.52zm-14.24 5.6q-1.24-1.45-2.18-2.95-.56-.89-1.61-.96-.35-.03-.67.13a.67.66 59.4 00-.25.99l3.98 5.49q.47.65 1.22.35l1.32-.52q.88-.34.75-1.27l-.44-3.38q-.17-1.24.59-.24l2.15 2.87q.44.58 1.16.47.69-.11 1.44-.54.72-.4.69-1.22l-.18-6.5q-.03-.79-.75-.48l-1.07.45q-.82.36-.65 1.24l.78 3.93q.21 1.06-.51.25-1.32-1.48-2.4-3.09a1.34 1.33-9.3 00-.77-.55q-1.01-.25-1.93.2-.54.26-.51.86l.24 4.32q.03.66-.4.15zm-34.43-.1q-.96-.43-.58-1.41l.91-2.33a.7.7 0 00-.33-.88q-.71-.36-1.48-.4-.49-.03-.7.42-.69 1.57-.95 2.99-.33 1.9 1.49 2.51l3.98 1.35q1.19.4 1.61-.79l1.23-3.47q.14-.4-.19-.66-.44-.35-1.02-.37a1.24 1.23 17.1 00-1.1.58l-1.35 2.19a.99.99 0 01-1.25.38l-.27-.11zm9.33 4.09q2.35.68 4.47-.41a2.2 2.19 68.2 001.1-2.58c-1.2-3.99-4.63-1.5-7.11-2.98a.57.57 0 00-.85.34l-1.71 6.47q-.15.59.43.74l1.66.45q.83.22.98-.63l.14-.84q.13-.78.89-.56z"/><path fill="#fafaf9" d="M117.8 229.2q-.07.18-.02.38.07.3.35.44l1.99 1.02q.66.33.02.72-.14.09-.3.09-1.15.05-2.56-.51-.41-.16-.49.27l-.06.35a.73.73 0 00.47.82l2.02.73q.48.17.53.68l.03.43q.07.72-.62.49l-4.84-1.64a.77.77 0 01-.46-1.03l2.17-5.12q.32-.73 1.06-.44l4.09 1.58a.68.64 88.2 01.37.37q.45 1.04-.15 1.14-.17.03-.34-.03-1.32-.46-2.58-1.02-.48-.21-.68.28zM180.93 231.85q.9-.44 1.77-.21 1.29.33.16 1.04-2.14 1.34-4.84 1.98a.56.56 0 01-.64-.77l2.17-4.93a.25.23 42.6 00-.02-.24l-.27-.4a.33.33 0 00-.55-.01q-.89 1.25-1.99 1.86a.58.58 0 01-.85-.62c.61-2.94 5.23-4.13 5.8-.69a1.31 1.3-30.6 01-.27 1.04q-.58.7-.93 1.51-.38.85.46.44zM171.81 232.67l-1.04.3q-.74.21-.47-.51.79-2.07 2.23-3.34a.56.56 0 01.89.2l2.33 5.75a.65.65 0 01-.59.9l-.49.02q-.88.02-1.18-.81l-.74-2.03q-.25-.68-.94-.48zM49.37 235.37l2.83-3.45q.39-.47.98-.28l1.69.55q.66.22.54.9l-.77 4.28q-.17.96.42.18l2.46-3.23q.65-.86 1.68-.52.23.07.48.11 1.21.22.4 1.14-1.89 2.16-3.7 4.21-1.24 1.39-3.07.67-1.07-.42-.88-1.55l.39-2.33q.54-3.15-1.11-.41-1.73 2.89-3.83 2.25a1.73 1.72 10.4 01-1.22-1.76l.39-6.03q.06-.86.87-.56l1.15.42q.79.28.63 1.11l-.81 4.07q-.22 1.08.48.23zM123.55 234.39q-.54-.01-.88-.38a1.5 1.5 0 011.09-2.53q2.1.01 3.31 1.41.29.33-.01.66l-.21.23a.54.54 0 01-.78.02q-.47-.49-1.16-.6-.77-.12-.23.45.49.5 1.19.68.47.11.6.57c.32 1.06-.31 2.46-1.59 2.26q-1.96-.29-3.37-1.64a.48.47-58.8 01-.12-.5l.21-.59q.23-.63.56-.05.75 1.3 2.11 1.38.6.03.17-.81a1.03 1.01 76.8 00-.89-.56zM168.507 238.528a3.73 2.97 66 01-4.23-2.2 3.73 2.97 66 011.196-4.615 3.73 2.97 66 014.23 2.199 3.73 2.97 66 01-1.196 4.615zm-.762-1.39a2.23 1.11 68 00.194-2.484 2.23 1.11 68 00-1.864-1.652 2.23 1.11 68 00-.194 2.484 2.23 1.11 68 001.864 1.652zM130.15 238.42l.23.21a.12.12 0 01-.05.2q-1.32.28-2.21-.46-.43-.36-.34-.9l.62-3.86a.84.81 84.4 01.5-.63l1.73-.7q.54-.22.64.36l.36 2.02a.69.68 73.7 01-.41.76q-1.5.61-1.39 2.33.03.4.32.67z"/><ellipse fill="#3a4caa" transform="rotate(68 -90.798 241.262)" rx="2.23" ry="1.11"/><path fill="#fafaf9" d="M246.56 237.16q.01.13.07.26.06.14.18.22 1.27.78 3.91-1.06a.47.47 0 01.66.12q.16.25.06.53-.07.18-.23.3c-1.86 1.45-5.75 3.28-7.26.51-1.75-3.2 3.23-5.23 5.62-4.8a1.65 1.65 0 011.27 1.12l.36 1.14q.24.78-.56.66-.88-.14-1.92.03-.5.07-.8.47-.42.56-1.04.26-.38-.18-.32.24zm.91-1.21q.45.04.6-.35a.69.68-81.4 00-.68-.93q-.92.06-1.27 1-.23.61.42.58.26-.01.48-.17a.71.64-58.1 01.45-.13zM160.02 235.7q-.85.3-1.52 1.18a.64.63-63.7 01-.67.23q-.59-.17-.5-.58.78-3.35 4.57-2.65.56.1.71.64c.3 1.06.32 2.55-.51 3.4q-.22.22-.32.52-.22.68.48.54.52-.11.89-.47.38-.38.85-.11.33.2.54.51.39.58-.26.83l-4.8 1.8a.62.62 0 01-.77-.87l2.1-4.07q.75-1.46-.79-.9zM135.81 235.72q.34-.28.53-.65.28-.52.86-.57.67-.06 1.09.53.29.39.09.82l-2.2 4.8q-.23.49-.76.4-2.18-.37-3.68-1.69-.39-.34-.37-.86c.06-1.82 1.52-4.42 3.75-2.76q.35.26.69-.02zm-.53 1.87q.21-1.26-.85-.55-.96.63-1.55 1.57-.46.73.4.77 1.68.1 2-1.79z"/><path fill="#3a4caa" d="M247.02 236.08q-.22.16-.48.17-.65.03-.42-.58.35-.94 1.27-1a.69.68-81.4 01.68.93q-.15.39-.6.35a.71.64-58.1 00-.45.13z"/><path fill="#fafaf9" d="M239.9 239.25c-.42-1.01-1.79-1.24-2.4-.26q-.29.46-.09.97l.94 2.43q.22.57-.35.79l-1.03.41a.78.78 0 01-.99-.38l-1.88-3.78a.77.76-14.2 01.67-1.11q1.99-.07 3.5-1.39a2.32 2.31 51.9 013.42.42q.86 1.22 1.5 2.91.25.66-.41.92l-1.11.45q-.61.24-.89-.35-.46-1.01-.88-2.03z"/><path fill="#3a4caa" d="M135.28 237.59q-.32 1.89-2 1.79-.86-.04-.4-.77.59-.94 1.55-1.57 1.06-.71.85.55z"/><path fill="#fafaf9" d="M64.02 239.9q.11-.53-.86-.89a1.07 1.07 0 00-1.36.6l-.4 1q-.32.79.47 1.1l2.74 1.07q.51.2.31.71-.06.17-.2.27-.21.16-.46.13-3-.26-5.04-2.29a2.28 2.27 54.8 01.63-3.68q3.39-1.59 6.13 1.54c.65.74.64 1.92-.22 2.51q-.44.3-.93.07l-2.45-1.18q-.89-.42.04-.73.57-.19 1.16.02.36.13.44-.25z"/><ellipse fill="#fafaf9" transform="rotate(-21.3 748.37 -492.413)" rx="1.15" ry=".61"/><ellipse fill="#fafaf9" transform="rotate(-4.8 2944.446 -1529.717)" rx="1.28" ry=".97"/><rect fill="#fafaf9" x="-1.29" y="-2.91" transform="rotate(-25.8 645.65 -385.2)" width="2.58" height="5.82" rx="1.11"/><path fill="#fafaf9" d="M78.26 246.78q1.27-.97 2.13-2.3.21-.32.54-.13l1.24.7q.34.19.11.5-1.65 2.19-3.61 3.56a1.68 1.68 0 01-2.65-1.37v-1.69q0-.99-.66-.25l-1.43 1.62q-.36.4-.85.18l-1.4-.62q-.52-.24-.54-.81l-.14-3.89q-.04-1.3 1.23-1.05l.29.06q1.06.2.96 1.28l-.23 2.36q-.11 1.12.58.24l1.51-1.9q.26-.33.67-.36 1.11-.11 1.72.85a1.07 1.07 0 01.17.7l-.2 2.01q-.08.8.56.31zM223.67 243.04c1.21-1.43 3.59-1.8 4.77-.06q.98 1.45 1.23 2.92.12.69-.54.94-.57.21-1.14.19a1.01.99-10.6 01-.89-.6l-.97-2.24a.8.78-.7 00-.44-.42q-.6-.23-1.1 0-1.1.51-.71 1.66l.83 2.5q.12.35-.2.53-.68.38-1.47.53-.57.1-.78-.43l-2.45-6.11q-.43-1.08.72-1.2l.4-.04a1.45 1.44 74.2 011.44.81l.45.92q.35.71.85.1zM85.12 243.81q.96-.01 1.56.65.24.26.19.61a.46.46 0 01-.64.35q-.8-.37-1.38-.96-.61-.64.27-.65zM217.3 247.55q.42-.04.79-.21.45-.2.93-.09 1.13.25 1.62 1.33a.8.8 0 01-.15.88q-1.86 1.92-4.47 2.18-.32.03-.63-.07-.78-.28.02-.8.26-.17.55-.26.94-.31 1.65-.88.95-.77-.28-.77-.89.01-1.71.29-.64.22-1.13-.17c-.65-.52-.63-1.52-.04-2.07q1.59-1.48 3.62-2.15.56-.18.63.4l.05.33a.69.69 0 01-.5.75q-.72.21-1.23.74-.62.65.28.57z"/><rect fill="#fafaf9" x="-1.34" y="-4.12" transform="rotate(23.7 -550.006 336.104)" width="2.68" height="8.24" rx=".79"/><rect fill="#fafaf9" x="-1.35" y="-2.65" transform="rotate(23.9 -546.377 322.578)" width="2.7" height="5.3" rx=".95"/><rect fill="#fafaf9" x="-1.26" y="-4.16" transform="rotate(-23.5 706.343 -374.41)" width="2.52" height="8.32" rx=".79"/><rect fill="#fafaf9" x="-1.34" y="-4.17" transform="rotate(23 -570.258 354.138)" width="2.68" height="8.34" rx="1.08"/><rect fill="#fafaf9" x="-1.32" y="-4.19" transform="rotate(-22.5 736.08 -385.643)" width="2.64" height="8.38" rx="1.12"/><path fill="#fafaf9" d="M198.64 251.07l-1.61 1q-.59.36-.45-.32.34-1.71 2.3-1.64a.37.37 0 01.34.44q-.08.37-.37.44-.11.02-.21.08zM101.3 255.69l-.79 1.59q-.23.46-.74.59-.99.24-1.52-.58-.31-.48-.07-1.01l1.77-3.91a.59.59 0 01.96-.17q1.24 1.28 3.08 1.39a.84.84 0 01.78.7l.05.29a.26.25 82.9 01-.23.3l-2.29.14q-.69.04-1 .67z"/><ellipse fill="#fafaf9" transform="rotate(31.6 -393.507 316.968)" rx="1.36" ry=".77"/><path fill="#fafaf9" d="M200.12 252.69l1.77 4.19a.73.73 0 01-.7 1.01l-1.36-.06a.73.73 0 01-.65-.48l-1.19-3.33a.73.73 0 01.16-.75l.77-.8a.73.73 0 011.2.22zM194.32 257.51l-.2-2.61q-.06-.79.73-.85l.7-.06q.75-.05.76.69c.02 1.65.54 5.66-2.05 5.56a1.5 1.47-21.5 01-.99-.42l-1.2-1.14q-.81-.77-.64.33l.24 1.59q.08.54-.36.85-.9.62-2 .61-.58-.01-.98-.42l-2.87-2.89q-.88-.89.32-1.24l.45-.13a1.41 1.41 0 011.57.58q.59.89 1.49 1.44.71.43.6-.39l-.27-2.04q-.08-.54.29-.94.69-.74 1.57-.4.58.22 1 .75.59.76 1.32 1.39.57.49.52-.26zM105.4 255.37a.49.49 0 01.63-.29l.41.15a1.71 1.33 20.3 011.14 1.84l-.85 2.31a1.71 1.33 20.3 01-2.06.66l-.42-.16a.49.49 0 01-.29-.63l1.44-3.88zM112.33 258.3a.44.44 0 00-.11.85q2.73 1.11 1.5 3.2a.8.8 0 01-.73.38q-2.59-.15-4.87-1.55-.78-.47.08-.76 1.39-.45 3.01.69.23.17.45-.31a.45.44 22.9 00-.25-.61q-2.54-.93-2.01-2.83.16-.57.74-.65 2.67-.38 4.71 1.34a.56.55 28.6 01.17.56q-.14.54-.51.46a2.52 1.91-13.7 01-.87-.38q-.64-.48-1.31-.39zM118.15 262.83l-.07.39q-.02.09.05.15 1.62 1.35 3.49 1.63.3.05.2.34l-.18.54q-.03.09-.12.09c-2.62.01-7.67-1.72-5.78-5.32a1.41 1.4-85.3 01.78-.67q3.22-1.1 5.56.7c1.05.82 1.34 2.3.62 3.44q-.34.54-.91.26l-3.35-1.68q-.24-.12-.29.13zm2.84-.41l.1-.67a.56.56 0 00-.27-.56q-1.29-.79-2.44-.09a.35.35 0 00-.16.37l.09.48q.07.4.44.23.85-.4 1.32.42a.5.5 0 00.92-.18zM179.33 262.46q-.78-.7-1.89-.68a.62.62 0 00-.52.94l1.05 1.75q.33.54.96.5 1.14-.09 1.97-.87a.64.63 28.8 01.57-.16l.62.13q.68.14.17.61-1.94 1.8-4.78 2.03c-3.32.26-4-3.26-1.53-5.14q2.94-2.24 5.41-.39a1.35 1.34 55.5 01-.44 2.37q-.93.26-2 .2-.66-.03-.28-.56.17-.23.47-.21.88.07.22-.52z"/><path fill="#3a4caa" d="M120.07 262.6q-.47-.82-1.32-.42-.37.17-.44-.23l-.09-.48a.35.35 0 01.16-.37q1.15-.7 2.44.09a.56.56 0 01.27.56l-.1.67a.5.5 0 01-.92.18z"/><path fill="#fafaf9" d="M165.27 268.43l-.24-4.32q-.03-.6.51-.86.92-.45 1.93-.2a1.34 1.33-9.3 01.77.55q1.08 1.61 2.4 3.09.72.81.51-.25l-.78-3.93q-.17-.88.65-1.24l1.07-.45q.72-.31.75.48l.18 6.5q.03.82-.69 1.22-.75.43-1.44.54-.72.11-1.16-.47l-2.15-2.87q-.76-1-.59.24l.44 3.38q.13.93-.75 1.27l-1.32.52q-.75.3-1.22-.35l-3.98-5.49a.67.66 59.4 01.25-.99q.32-.16.67-.13 1.05.07 1.61.96.94 1.5 2.18 2.95.43.51.4-.15zM130.44 268.48l.27.11a.99.99 0 001.25-.38l1.35-2.19a1.24 1.23 17.1 011.1-.58q.58.02 1.02.37.33.26.19.66l-1.23 3.47q-.42 1.19-1.61.79l-3.98-1.35q-1.82-.61-1.49-2.51.26-1.42.95-2.99.21-.45.7-.42.77.04 1.48.4a.7.7 0 01.33.88l-.91 2.33q-.38.98.58 1.41zM138.88 273.13l-.14.84q-.15.85-.98.63l-1.66-.45q-.58-.15-.43-.74l1.71-6.47a.57.57 0 01.85-.34c2.48 1.48 5.91-1.01 7.11 2.98a2.2 2.19 68.2 01-1.1 2.58q-2.12 1.09-4.47.41-.76-.22-.89.56zm3.486-4.237a1.69 1.5-34.9 00-2.244-.263 1.69 1.5-34.9 00-.528 2.197 1.69 1.5-34.9 002.244.263 1.69 1.5-34.9 00.528-2.197z"/><ellipse fill="#3a4caa" transform="rotate(-34.9 499.74 -89.318)" rx="1.69" ry="1.5"/></svg>