<svg xmlns="http://www.w3.org/2000/svg" width="500" viewBox="0 0 375 375" height="500" version="1.0"><defs><clipPath id="prefix__a"><path d="M197 154h89v75h-89zm0 0"/></clipPath><clipPath id="prefix__b"><path d="M238.441 128.64l94.774 45.204-49.723 104.25-94.773-45.203zm0 0"/></clipPath><clipPath id="prefix__c"><path d="M238.441 128.64l94.774 45.204-49.723 104.25-94.773-45.203zm0 0"/></clipPath><clipPath id="prefix__d"><path d="M194 169h110v68H194zm0 0"/></clipPath><clipPath id="prefix__e"><path d="M238.441 128.64l94.774 45.204-49.723 104.25-94.773-45.203zm0 0"/></clipPath><clipPath id="prefix__f"><path d="M238.441 128.64l94.774 45.204-49.723 104.25-94.773-45.203zm0 0"/></clipPath><clipPath id="prefix__g"><path d="M200 139h68v82h-68zm0 0"/></clipPath><clipPath id="prefix__h"><path d="M238.441 128.64l94.774 45.204-49.723 104.25-94.773-45.203zm0 0"/></clipPath><clipPath id="prefix__i"><path d="M238.441 128.64l94.774 45.204-49.723 104.25-94.773-45.203zm0 0"/></clipPath><clipPath id="prefix__j"><path d="M89 154h89v76H89zm0 0"/></clipPath><clipPath id="prefix__k"><path d="M42.07 173.395l94.97-44.79 49.265 104.465-94.965 44.79zm0 0"/></clipPath><clipPath id="prefix__l"><path d="M136.754 128.738l-94.969 44.79 49.266 104.464 94.969-44.789zm0 0"/></clipPath><clipPath id="prefix__m"><path d="M71 169h109v68H71zm0 0"/></clipPath><clipPath id="prefix__n"><path d="M42.07 173.395l94.97-44.79 49.265 104.465-94.965 44.79zm0 0"/></clipPath><clipPath id="prefix__o"><path d="M136.754 128.738l-94.969 44.79 49.266 104.464 94.969-44.789zm0 0"/></clipPath><clipPath id="prefix__p"><path d="M107 139h68v82h-68zm0 0"/></clipPath><clipPath id="prefix__q"><path d="M42.07 173.395l94.97-44.79 49.265 104.465-94.965 44.79zm0 0"/></clipPath><clipPath id="prefix__r"><path d="M136.754 128.738l-94.969 44.79 49.266 104.464 94.969-44.789zm0 0"/></clipPath><clipPath id="prefix__s"><path d="M188.219 98.738h41.894v89.965H188.22zm0 0"/></clipPath><clipPath id="prefix__t"><path d="M144.613 98H187v90.703h-42.387zm0 0"/></clipPath><clipPath id="prefix__u"><path d="M179 81.453h17V98h-17zm0 0"/></clipPath><clipPath id="prefix__v"><path d="M169.566 193.45H200V204h-30.434zm0 0"/></clipPath><clipPath id="prefix__w"><path d="M176 202h25.066v37.2H176zm0 0"/></clipPath><clipPath id="prefix__x"><path d="M173.625 74.8h27.75v26.25h-27.75zm0 0"/></clipPath><clipPath id="prefix__y"><path d="M205.793 81.215h19.5v18.75h-19.5zm0 0"/></clipPath><clipPath id="prefix__z"><path d="M149.781 81.215h19.5v18.75h-19.5zm0 0"/></clipPath></defs><g clip-path="url(#prefix__a)"><g clip-path="url(#prefix__b)"><g clip-path="url(#prefix__c)"><path fill="#ffbd59" d="M285.582 220.95l-5.723-66.567s-6.683.804-14.59 3.262l.57 6.664a43.669 43.669 0 016.75.203l4.93 48.234s-54.695-6.305-79.96 16.09c0 0 31.574-18.941 88.023-7.887"/></g></g></g><g clip-path="url(#prefix__d)"><g clip-path="url(#prefix__e)"><g clip-path="url(#prefix__f)"><path fill="#ff914d" d="M297.676 169.719s-6.684.8-14.59 3.261l.57 6.665a43.168 43.168 0 016.75.199l4.93 48.238s-64.809-14.586-100.43 7.766c0 0 39.274-13.75 108.492.437l-5.722-66.566"/></g></g></g><g clip-path="url(#prefix__g)"><g clip-path="url(#prefix__h)"><g clip-path="url(#prefix__i)"><path fill="#fff" d="M200.688 220.574s27.07-21.52 67.167-14.062l-5.722-66.567S231.988 143.56 224 158.992c0 0 11.879-10.957 30.863-8.922l4.934 48.239s-38.781-1.375-59.11 22.265"/></g></g></g><g clip-path="url(#prefix__j)"><g clip-path="url(#prefix__k)"><g clip-path="url(#prefix__l)"><path fill="#ffbd59" d="M89.21 220.844l6.013-66.543s6.68.832 14.578 3.328l-.602 6.66a43.52 43.52 0 00-6.75.172l-5.14 48.215s54.722-6.067 79.89 16.437c0 0-31.492-19.078-87.988-8.27"/></g></g></g><g clip-path="url(#prefix__m)"><g clip-path="url(#prefix__n)"><g clip-path="url(#prefix__o)"><path fill="#ff914d" d="M77.34 169.559s6.68.832 14.574 3.324l-.602 6.66a43.481 43.481 0 00-6.746.172l-5.14 48.215s64.87-14.301 100.398 8.203c0 0-39.219-13.918-108.496-.035l6.012-66.54"/></g></g></g><g clip-path="url(#prefix__p)"><g clip-path="url(#prefix__q)"><g clip-path="url(#prefix__r)"><path fill="#fff" d="M174.11 220.84S147.128 199.2 107 206.48l6.012-66.542s30.129 3.746 38.05 19.214c0 0-11.832-11.007-30.824-9.054l-5.14 48.214s38.78-1.207 59.011 22.528"/></g></g></g><path d="M123.11 259.72l-6.078 8.973-6.09-8.973v8.961h-5.531v-20.789h4.246l7.363 11.75 7.375-11.75h4.246v20.79h-5.53zm21.396 4.145l2.48 4.816h-16.792l10.351-20.789h3.754l10.348 20.79h-6.235l-5.984-12.403-3.688 7.586zm21.305-1.961h-3.781l2.469-4.95h5.714c.371 0 .72-.155 1.04-.468.413-.422.62-.95.62-1.582 0-.64-.207-1.172-.62-1.598-.32-.312-.669-.468-1.04-.468h-8.418v15.843h-5.726v-20.789h14.144c2.11 0 3.895.73 5.348 2.192 1.36 1.351 2.04 2.957 2.04 4.82 0 1.852-.68 3.453-2.04 4.805-1.238 1.246-2.168 1.902-2.789 1.972l6.05 7h-7.144zm27.201-14.012h6.325l-7.325 13.492v7.297h-5.742v-7.297l-7.324-13.492h6.324l3.871 7.13zm19.175 21.18c-3.906 0-6.918-1.066-9.039-3.195-2.016-2.008-3.023-4.239-3.023-6.688h-.016c0-3.742 1.016-6.617 3.039-8.637 2.121-2.12 5.133-3.18 9.04-3.18 3.901 0 6.917 1.063 9.038 3.192 2.016 2.012 3.024 4.582 3.024 7.715 0 3.047-1.004 5.582-3.012 7.598-2.129 2.129-5.149 3.195-9.05 3.195zm0-4.95c2.156 0 3.727-.491 4.715-1.48 1.082-1.074 1.621-2.527 1.621-4.363 0-1.914-.539-3.414-1.621-4.504-.98-.973-2.55-1.457-4.715-1.457-2.164 0-3.742.492-4.726 1.469-1.082 1.082-1.625 2.578-1.625 4.492 0 1.828.543 3.285 1.625 4.375.984.98 2.562 1.469 4.726 1.469zm0 0" fill="#f6921e"/><path d="M226.063 247.892h5.727v12.13c0 1.202.414 2.21 1.234 3.023.719.718 1.547 1.078 2.48 1.078.934 0 1.766-.36 2.493-1.078.816-.813 1.222-1.82 1.222-3.024v-12.129h5.727v12.13c0 2.413-.875 4.5-2.625 6.257-1.867 1.86-4.14 2.793-6.816 2.793s-4.95-.934-6.817-2.793c-1.75-1.758-2.625-3.844-2.625-6.258zm0 0" fill="#fff"/><path d="M266.079 247.892l-2.055 4.946h-10.012c-.336 0-.597.097-.777.285-.184.191-.273.465-.273.82 0 .45.441.836 1.324 1.156.734.278 1.918.602 3.55.973 1.633.371 3.067.836 4.305 1.39 2.684 1.204 4.004 3.094 3.961 5.672-.035 1.786-.793 3.196-2.273 4.235-1.254.875-2.746 1.312-4.477 1.312h-13.105l2.05-4.949h11.055c.38 0 .657-.062.828-.191.141-.09.207-.246.207-.469.012-.547-.293-.953-.906-1.223-.754-.343-2.101-.726-4.039-1.14-1.941-.418-3.523-.922-4.754-1.52-2.285-1.082-3.433-2.832-3.441-5.246 0-1.844.71-3.344 2.129-4.492 1.273-1.04 2.82-1.559 4.636-1.559zm0 0" fill="#f6921e"/><path d="M90.245 291.28H82.97v-12.782h7.274v2.782h-3.95v2.164h3.735v2.78h-3.735v2.274h3.95zm25.567-6.395c0 1.328-.402 2.559-1.203 3.691-.8 1.137-1.828 1.918-3.078 2.356-.66.23-1.332.348-2.02.348h-4.906v-12.782h4.906c1.2 0 2.309.336 3.332 1.004a6.42 6.42 0 012.313 2.602c.437.898.656 1.824.656 2.781zm-3.457 0c0-.879-.246-1.648-.738-2.305-.656-.867-1.633-1.3-2.93-1.3h-.758v7.218h.758c1.305 0 2.281-.433 2.93-1.3.492-.66.738-1.434.738-2.313zm28.974.985c0 .765-.06 1.421-.184 1.964-.195.844-.656 1.61-1.387 2.305-1.035.977-2.422 1.469-4.156 1.469-1.77 0-3.148-.5-4.14-1.5-.524-.524-.883-1.18-1.079-1.973-.136-.562-.203-1.32-.203-2.266v-7.37h3.324v6.921c0 .555.008.969.028 1.242.062.868.457 1.473 1.187 1.817.3.144.633.215.992.215.813 0 1.426-.282 1.836-.852.305-.418.461-1.226.461-2.422v-6.922h3.32zm24.135 5.109c-1.086.433-2.09.648-3.016.648-1.61 0-3.05-.515-4.324-1.547-1.625-1.316-2.434-3.03-2.434-5.148 0-2.121.809-3.844 2.434-5.16 1.273-1.028 2.723-1.543 4.351-1.543.887 0 1.883.215 2.989.644v3.98c-.313-.382-.63-.667-.957-.862a3.633 3.633 0 00-1.91-.532c-.86 0-1.61.258-2.247.778-.804.652-1.207 1.55-1.207 2.695 0 1.137.403 2.031 1.207 2.687.637.516 1.387.778 2.247.778.683 0 1.32-.18 1.91-.535.32-.188.636-.473.957-.86zm26.504.301h-3.551l-.824-2.227h-4.586l-.883 2.227h-3.508l4.914-12.782h3.625zm-5.274-4.758l-1.375-4.07-1.394 4.07zm26.568-5.242h-2.753v10h-3.325v-10h-2.703v-2.782h8.781zm13.714-2.782h3.324v12.782h-3.324zm31.838 6.434c0 1.734-.578 3.258-1.73 4.57-1.317 1.489-3.102 2.235-5.348 2.235-2.238 0-4.02-.746-5.336-2.235-1.156-1.312-1.73-2.836-1.73-4.57 0-.793.152-1.606.464-2.441.313-.832.73-1.543 1.258-2.137 1.316-1.492 3.098-2.238 5.344-2.238 2.246 0 4.031.746 5.347 2.238 1.153 1.308 1.731 2.836 1.731 4.578zm-3.453 0c0-.898-.29-1.676-.863-2.332-.735-.836-1.657-1.254-2.762-1.254-.762 0-1.45.215-2.067.64a3.487 3.487 0 00-1.32 1.708c-.152.406-.226.82-.226 1.238 0 .86.289 1.633.863 2.312.71.844 1.629 1.266 2.75 1.266 1.125 0 2.047-.422 2.762-1.258a3.454 3.454 0 00.863-2.32zm30.575 6.348h-3.325l-6.113-7.829v7.829h-3.324v-12.782h3.324l6.113 7.82v-7.82h3.325zm0 0" fill="#fff"/><path fill="#ffbd59" d="M212.7 113.082c2.85 2.41 3.218 6.684.823 9.55a6.723 6.723 0 01-9.5.829c-2.851-2.406-3.218-6.684-.824-9.547a6.72 6.72 0 019.5-.832"/><path fill="#ffbd59" d="M220.543 119.98a.518.518 0 01-.07.551.508.508 0 01-.528.164l-.047.055-1.488 3.219-1.73-1.461 2.894-2.031.047-.055a.517.517 0 01.07-.55.5.5 0 01.528-.165l2.437-2.918-1.754-3.152.848 2.843-2.008-.671-3.144 3.757a8.402 8.402 0 00-2.871-7.71 8.314 8.314 0 00-7.922-1.56l3.07-3.667-2.457-4.567 12.016 4.22 6.203 11.171-1.547-.52-2.547 3.047"/><g clip-path="url(#prefix__s)"><path fill="#ffbd59" d="M203.707 175.746s-10.727-2.96-10.809-22.566c-.035-8.364 1.454-15.047-1.144-27.168-2.598-12.121-4.34-19.965-3.016-27.164 0 0 2.387 16.035 14.969 23.613 15.809 9.516 22.664 19.852 22.246 32.18 0 0-4.937-12.293-16.293-15.504 0 0-.89 34.523 20.453 49.566 0 0-18.207-3.195-29.941-32.598 0 0-1.66 13.793 3.535 19.641"/></g><path fill="#ff914d" d="M162.031 113.082a6.8 6.8 0 00-.824 9.55 6.718 6.718 0 009.496.829c2.852-2.406 3.223-6.684.824-9.547a6.715 6.715 0 00-9.496-.832"/><path fill="#ff914d" d="M154.184 119.98a.514.514 0 00.602.715l.046.055 1.488 3.219 1.73-1.461-2.894-2.031-.047-.055a.517.517 0 00-.07-.55.507.507 0 00-.531-.165l-2.438-2.918 1.754-3.152-.844 2.843 2.008-.671 3.14 3.757c-.429-2.8.56-5.757 2.876-7.71a8.306 8.306 0 017.918-1.56l-3.067-3.667 2.458-4.567-12.02 4.22-6.203 11.171 1.547-.52 2.547 3.047"/><g clip-path="url(#prefix__t)"><path fill="#ff914d" d="M171.02 175.746s10.73-2.96 10.812-22.566c.035-8.364-1.453-15.047 1.145-27.168 2.597-12.121 4.335-19.965 3.011-27.164 0 0-2.386 16.035-14.968 23.613-15.805 9.516-22.66 19.852-22.247 32.18 0 0 4.942-12.293 16.297-15.504 0 0 .887 34.523-20.453 49.566 0 0 18.203-3.195 29.938-32.598 0 0 1.664 13.793-3.535 19.641"/></g><g clip-path="url(#prefix__u)"><path fill="#fff" d="M187.078 95.637l.242 1.601.215-1.605a7.127 7.127 0 015.977-6.11l1.593-.246-1.597-.215a7.135 7.135 0 01-6.082-6.007l-.242-1.602-.215 1.606a7.127 7.127 0 01-5.977 6.109l-1.594.246 1.598.215a7.135 7.135 0 016.082 6.008"/></g><g clip-path="url(#prefix__v)"><path fill="#fff" d="M199.906 198.57c-.031.496-.383.922-.855 1.09l-9.93 3.567a1.238 1.238 0 01-.851 0l-9.243-3.317a.527.527 0 01-.297-.722.55.55 0 01.684-.262l9.219 3.312a.221.221 0 00.125 0l9.969-3.582a.169.169 0 00.12-.168.175.175 0 00-.117-.172l-9.972-3.773a.183.183 0 00-.13 0l-6.894 2.61c.246.085.5.179.754.285 3.66 1.457 6.164.23 7.067-.36a.535.535 0 01.688.094.522.522 0 01-.11.789c-1.098.715-3.957 2.082-8.04.453-5.722-2.281-7.968-.324-8.683.652l.656.391-1.609 2.566a1.445 1.445 0 01-1.93.493 1.419 1.419 0 01-.52-1.989l1.579-2.558.926.554c.77-1.05 2.886-2.992 7.554-1.867l8.184-3.097c.285-.11.602-.11.89 0l9.97 3.773c.511.195.835.688.796 1.238zm0 0"/></g><g clip-path="url(#prefix__w)"><path fill="#fff" d="M193.473 202.875l-4.352 1.563a1.238 1.238 0 01-.851 0l-4.504-1.618c-2.032 6.957-7.59 12.578-7.59 12.578 1.605 1.868 3.176 4.25 4.648 6.903l4.465 9.547c.832 2.117 2.164 5.363 2.781 7.351l-.136-10.125c.066-1.5.07-9.062.03-12.379a1.483 1.483 0 01-.82-1.32c0-.809.653-1.465 1.465-1.484.813.02 1.465.675 1.465 1.484 0 .578-.332 1.074-.82 1.32-.04 3.317-.035 10.88.035 12.38l-.14 10.124c.617-1.988 1.949-5.234 2.785-7.351l4.46-9.547c1.473-2.653 3.047-5.035 4.649-6.903 0 .004-5.527-5.59-7.57-12.523zm0 0"/></g><g clip-path="url(#prefix__x)"><path fill="#fff" d="M187.5 74.8l3.57 7.993c.137.305.356.57.625.77.274.195.594.32.93.355l8.746.91-6.535 5.848a1.907 1.907 0 00-.594 1.82l1.828 8.555-7.61-4.375a1.936 1.936 0 00-1.925 0l-7.61 4.375 1.833-8.555c.07-.328.05-.668-.055-.988a1.874 1.874 0 00-.543-.832l-6.531-5.848 8.742-.91a1.93 1.93 0 001.555-1.125zm0 0" fill-rule="evenodd"/></g><g clip-path="url(#prefix__y)"><path fill="#f6921e" d="M215.543 81.219l2.508 5.707a1.366 1.366 0 001.094.804l6.148.649-4.594 4.18a1.36 1.36 0 00-.418 1.297l1.285 6.109-5.347-3.125a1.341 1.341 0 00-1.352 0l-5.351 3.125 1.285-6.11a1.36 1.36 0 00-.418-1.296l-4.594-4.18 6.149-.649a1.37 1.37 0 00.652-.253c.191-.141.344-.332.441-.551zm0 0" fill-rule="evenodd"/></g><g clip-path="url(#prefix__z)"><path fill="#f6921e" d="M159.531 81.219l2.512 5.707a1.342 1.342 0 001.094.804l6.144.649-4.594 4.18c-.175.16-.308.363-.382.59-.07.23-.086.472-.035.706l1.289 6.11-5.352-3.125a1.33 1.33 0 00-1.352 0l-5.351 3.125 1.289-6.11a1.403 1.403 0 00-.04-.707 1.338 1.338 0 00-.378-.59l-4.594-4.18 6.145-.648a1.37 1.37 0 00.652-.253c.192-.141.344-.332.442-.551zm0 0" fill-rule="evenodd"/></g></svg>